#N canvas 0 45 1438 1153 10;
#X obj 38 502 cnv 15 480 120 empty empty inlets 10 22 0 32 -258958
-262144 0;
#X obj 38 633 cnv 15 480 120 empty empty outlets 10 22 0 32 -258958
-262144 0;
#X obj 38 32 cnv 15 480 48 empty empty 2way~ 10 22 0 32 -99865 -262144
0;
#X obj 38 91 cnv 15 480 400 empty empty about 10 22 0 32 -258958 -262144
0;
#X text 50 141 DESCRIPTION;
#X text 50 231 INLETS (Left to Right);
#X obj 38 764 cnv 15 480 90 empty empty patch 10 22 0 32 -258958 -262144
0;
#X text 50 331 ARGUMENTS;
#X obj 48 683 r~ \$0.out;
#X obj 48 710 outlet~;
#X text 50 401 OUTLETS (Left to Right);
#X obj 48 552 inlet~;
#X obj 122 552 inlet~;
#X obj 48 579 s~ \$0.in.0;
#X obj 122 579 s~ \$0.in.1;
#X obj 196 552 inlet;
#X obj 196 579 s \$0.channel;
#N canvas 0 45 1438 1153 2way~ 0;
#X obj 25 342 *~;
#X obj 104 342 *~;
#X msg 40 164 1 0;
#X msg 77 164 0 1;
#X obj 40 137 sel 0 1;
#X obj 50 56 loadbang;
#X obj 40 29 r \$0.channel;
#X obj 25 315 r~ \$0.in.0;
#X obj 104 315 r~ \$0.in.1;
#X obj 40 191 unpack f f;
#X obj 25 369 s~ \$0.out;
#X msg 139 164 1000 \$1;
#X obj 139 191 /;
#X obj 139 137 f \$1;
#X obj 40 110 i 0;
#X obj 50 83 t b b;
#X obj 131 253 pack;
#X obj 109 282 line~;
#X obj 140 217 t f f;
#X obj 48 258 pack;
#X obj 26 287 line~;
#X connect 0 0 10 0;
#X connect 1 0 10 0;
#X connect 2 0 9 0;
#X connect 3 0 9 0;
#X connect 4 0 2 0;
#X connect 4 1 3 0;
#X connect 5 0 15 0;
#X connect 6 0 14 0;
#X connect 7 0 0 0;
#X connect 8 0 1 0;
#X connect 9 0 19 0;
#X connect 9 1 16 0;
#X connect 11 0 12 0;
#X connect 12 0 18 0;
#X connect 13 0 11 0;
#X connect 14 0 4 0;
#X connect 15 0 14 0;
#X connect 15 1 13 0;
#X connect 16 0 17 0;
#X connect 17 0 1 1;
#X connect 18 0 19 1;
#X connect 18 1 16 1;
#X connect 19 0 20 0;
#X connect 20 0 0 1;
#X restore 49 814 pd 2way~;
#X text 49 421 1st -> (~) Signal;
#X text 50 251 1st -> (~) Signal 1;
#X text 50 261 2nd -> (~) Signal 2;
#X text 50 271 3rd -> (i) Channel selection;
#X text 50 161 [2way~] is a signal swithcher. 2 signals go in \, 1
signal comes out.;
#X text 50 351 \$1 -> (f) Switching time in ms;
#X connect 8 0 9 0;
#X connect 11 0 13 0;
#X connect 12 0 14 0;
#X connect 15 0 16 0;
