#N canvas 2711 45 647 853 10;
#X obj 45 167 r~ \$0.out;
#X obj 45 194 outlet~;
#X obj 39 58 inlet~;
#X obj 123 58 inlet~;
#X obj 39 85 s~ \$0.in.0;
#X obj 123 85 s~ \$0.in.1;
#X obj 326 62 inlet;
#X obj 326 89 s \$0.channel;
#X obj 214 507 *~;
#X obj 310 496 *~;
#X msg 246 318 1 0;
#X msg 283 318 0 1;
#X obj 246 291 sel 0 1;
#X obj 246 183 r \$0.channel;
#X obj 231 469 r~ \$0.in.0;
#X obj 310 469 r~ \$0.in.1;
#X obj 246 345 unpack f f;
#X obj 238 550 s~ \$0.out;
#X obj 345 291 f \$1;
#X obj 246 224 i 0;
#X obj 337 407 pack;
#X obj 315 436 line~;
#X obj 254 412 pack;
#X obj 232 441 line~;
#X obj 226 62 inlet;
#X obj 226 89 s \$0.time;
#X obj 370 268 r \$0.time;
#X obj 284 258 t f b;
#X obj 345 313 t f f;
#X obj 273 202 loadbang;
#X connect 0 0 1 0;
#X connect 2 0 4 0;
#X connect 3 0 5 0;
#X connect 6 0 7 0;
#X connect 8 0 17 0;
#X connect 9 0 17 0;
#X connect 10 0 16 0;
#X connect 11 0 16 0;
#X connect 12 0 10 0;
#X connect 12 1 11 0;
#X connect 13 0 19 0;
#X connect 14 0 8 0;
#X connect 15 0 9 0;
#X connect 16 0 22 0;
#X connect 16 1 20 0;
#X connect 18 0 28 0;
#X connect 19 0 27 0;
#X connect 20 0 21 0;
#X connect 21 0 9 1;
#X connect 22 0 23 0;
#X connect 23 0 8 1;
#X connect 24 0 25 0;
#X connect 26 0 18 1;
#X connect 27 0 12 0;
#X connect 27 1 18 0;
#X connect 28 0 22 1;
#X connect 28 1 20 1;
#X connect 29 0 19 0;
