#N canvas 2783 45 575 411 10;
#X obj 38 32 cnv 15 480 48 empty empty acc 10 22 0 32 -99865 -262144
0;
#X obj 38 91 cnv 15 480 400 empty empty about 10 22 0 32 -258958 -262144
0;
#X text 50 141 DESCRIPTION;
#X text 49 294 INLETS (Left to Right);
#X text 49 374 OUTLETS;
#X text 49 314 1st -> (f) Add number to total and output current value
;
#X text 49 324 " " -> (b) Output current value;
#X text 49 334 2nd -> (f) Set current value;
#X text 50 161 [acc] is a simple numerical accumulator;
#X text 48 211 ARGUMENTS;
#X text 49 394 1st -> (f) Number;
#X text 48 231 \$1 -> Initial value;
#X obj 365 248 acc 12;
#X floatatom 404 208 5 0 0 0 - - -, f 5;
#X msg 285 207 1;
#X msg 325 207 3;
#X msg 365 207 -5;
#X floatatom 365 270 5 0 0 0 - - -, f 5;
#X obj 259 208 bng 15 250 50 0 empty empty empty 17 7 0 10 -262144
-1 -1;
#X connect 12 0 17 0;
#X connect 13 0 12 1;
#X connect 14 0 12 0;
#X connect 15 0 12 0;
#X connect 16 0 12 0;
#X connect 18 0 12 0;
