#N canvas 0 50 944 1101 10;
#X obj 38 502 cnv 15 480 120 empty empty inlets 10 22 0 32 -258958
-262144 0;
#X obj 38 633 cnv 15 480 120 empty empty outlets 10 22 0 32 -258958
-262144 0;
#X obj 38 32 cnv 15 480 48 empty empty boost~ 10 22 0 32 -99865 -262144
0;
#X obj 38 91 cnv 15 480 400 empty empty about 10 22 0 32 -258958 -262144
0;
#X text 50 151 DESCRIPTION;
#X text 50 281 INLETS (Left to Right);
#X obj 38 764 cnv 15 480 90 empty empty patch 10 22 0 32 -258958 -262144
0;
#X obj 110 552 inlet~;
#X obj 48 710 outlet~;
#X text 50 381 OUTLETS (Left to Right);
#N canvas 636 298 285 264 boost~ 0;
#X obj 16 82 +~;
#X obj 114 83 -~;
#X obj 16 110 +~;
#X obj 99 110 -~;
#X obj 128 55 r~ \$0.in2;
#X obj 16 55 r~ \$0.in1;
#X obj 16 137 s~ \$0.out1;
#X obj 99 137 s~ \$0.out2;
#X connect 0 0 2 0;
#X connect 0 0 3 0;
#X connect 1 0 2 1;
#X connect 1 0 3 1;
#X connect 2 0 6 0;
#X connect 3 0 7 0;
#X connect 4 0 0 1;
#X connect 4 0 1 1;
#X connect 5 0 0 0;
#X connect 5 0 1 0;
#X restore 49 814 pd boost~;
#X obj 48 552 inlet~;
#X obj 122 710 outlet~;
#X obj 110 579 s~ \$0.in2;
#X obj 48 683 r~ \$0.out1;
#X obj 122 683 r~ \$0.out2;
#X text 50 171 [boost~] is a basic stereo expander. It uses some weird
phase magic to make stereo "differences" even more "different." I don't
remember exactly how and why it works. I'll probably rewrite this later
with a better description.;
#X text 50 301 1st -> (~) Signal 1;
#X text 50 311 2nd -> (~) Signal 2;
#X text 50 401 1st -> (~) Expanded Signal 1;
#X text 50 411 2nd -> (~) Expanded Signal 2;
#X obj 48 579 s~ \$0.in1;
#X connect 7 0 13 0;
#X connect 11 0 21 0;
#X connect 14 0 8 0;
#X connect 15 0 12 0;
