#N canvas 0 50 944 981 10;
#X obj 38 502 cnv 15 480 120 empty empty inlets 10 22 0 32 -258958
-262144 0;
#X obj 38 633 cnv 15 480 120 empty empty outlets 10 22 0 32 -258958
-262144 0;
#X obj 38 32 cnv 15 480 48 empty empty bpmtoms 10 22 0 32 -99865 -262144
0;
#X obj 38 91 cnv 15 480 400 empty empty about 10 22 0 32 -258958 -262144
0;
#X text 50 141 DESCRIPTION;
#X text 49 314 INLETS (Left to Right);
#X obj 38 764 cnv 15 480 90 empty empty patch 10 22 0 32 -258958 -262144
0;
#N canvas 1091 152 370 414 bpmtoms 0;
#X obj 82 102 r \$0.bpm;
#X msg 82 176 60000 \$1;
#X obj 82 203 /;
#X obj 82 237 *;
#X obj 82 264 s \$0.msLength;
#X obj 163 140 r \$0.noteLength;
#X msg 142 193 4 \$1;
#X obj 142 220 /;
#X obj 82 149 t f b;
#X obj 142 166 f \$1;
#X obj 82 124 unpack f f;
#X connect 0 0 10 0;
#X connect 1 0 2 0;
#X connect 2 0 3 0;
#X connect 3 0 4 0;
#X connect 5 0 9 1;
#X connect 6 0 7 0;
#X connect 7 0 3 1;
#X connect 8 0 1 0;
#X connect 8 1 9 0;
#X connect 9 0 6 0;
#X connect 10 0 8 0;
#X connect 10 1 9 0;
#X restore 49 814 pd bpmtoms;
#X obj 48 552 inlet;
#X obj 48 579 s \$0.bpm;
#X obj 110 552 inlet;
#X obj 110 579 s \$0.noteLength;
#X obj 48 683 r \$0.msLength;
#X obj 48 710 outlet;
#X text 49 334 1st -> (f) BPM value;
#X text 50 238 2 = half;
#X text 50 228 1 = whole;
#X text 50 258 n = 1/n;
#X text 49 364 ARGUMENTS;
#X text 50 211 NOTE LENGTH FORMAT;
#X text 49 384 \$1 -> (f) Note length;
#X text 49 404 OUTLETS (Left to Right);
#X text 49 424 1st -> (f) Duration in milliseconds.;
#X text 50 161 [bpmtoms] converts a BPM value to a duration in milliseconds
based on a given note length.;
#X text 49 344 2nd -> (f) Note length;
#X text 50 248 4 = quarter;
#X connect 8 0 9 0;
#X connect 10 0 11 0;
#X connect 12 0 13 0;
