#N canvas 1920 45 789 853 10;
#X obj 63 78 inlet;
#X obj 55 178 r \$0.out;
#X obj 55 205 outlet;
#X obj 63 105 s \$0.in;
#X obj 221 117 + 1;
#X obj 221 144 * 0.5;
#X obj 221 90 r \$0.in;
#X obj 221 171 s \$0.out;
#X connect 0 0 3 0;
#X connect 1 0 2 0;
#X connect 4 0 5 0;
#X connect 5 0 7 0;
#X connect 6 0 4 0;
