#N canvas 0 50 944 1003 10;
#X obj 38 502 cnv 15 480 120 empty empty inlets 10 22 0 32 -258958
-262144 0;
#X obj 38 633 cnv 15 480 120 empty empty outlets 10 22 0 32 -258958
-262144 0;
#X obj 38 32 cnv 15 480 48 empty empty btom 10 22 0 32 -99865 -262144
0;
#X obj 38 91 cnv 15 480 400 empty empty about 10 22 0 32 -258958 -262144
0;
#X text 50 141 DESCRIPTION;
#X text 50 231 INLETS (Left to Right);
#X obj 38 764 cnv 15 480 90 empty empty patch 10 22 0 32 -258958 -262144
0;
#X text 50 331 OUTLETS (Left to Right);
#X obj 48 552 inlet;
#X obj 48 683 r \$0.out;
#X obj 48 710 outlet;
#X obj 48 579 s \$0.in;
#N canvas 912 124 399 324 btom 0;
#X obj 71 110 + 1;
#X obj 71 137 * 0.5;
#X obj 71 83 r \$0.in;
#X obj 71 164 s \$0.out;
#X connect 0 0 1 0;
#X connect 1 0 3 0;
#X connect 2 0 0 0;
#X restore 49 814 pd btom;
#X text 50 251 1st -> (f) Bipolar value;
#X text 50 351 1st -> (f) Monopolar value;
#X text 50 161 [btom] converts a bipolar (-1 to 1) value to a monopolar
(0 to 1) value. That's all.;
#X connect 8 0 11 0;
#X connect 9 0 10 0;
