#N canvas 2711 45 647 411 10;
#X obj 38 32 cnv 15 480 48 empty empty btom~ 10 22 0 32 -99865 -262144
0;
#X obj 38 91 cnv 15 480 400 empty empty about 10 22 0 32 -258958 -262144
0;
#X text 50 141 DESCRIPTION;
#X text 50 231 INLETS (Left to Right);
#X text 50 331 OUTLETS (Left to Right);
#X text 50 251 1st -> (~) Bipolar value;
#X text 50 351 1st -> (~) Monopolar value;
#X text 50 161 [btom~] converts a bipolar (-1 to 1) signal to a monopolar
(0 to 1) signal. That's all.;
#X obj 378 345 btom~;
#X obj 329 345 bang~;
#X obj 298 372 snapshot~;
#X obj 298 394 vsl 15 48 -1 1 0 0 empty empty empty 0 -9 0 10 -262144
-1 -1 2923 1;
#X floatatom 298 450 5 0 0 0 - - -, f 5;
#X obj 378 372 snapshot~;
#X obj 378 394 vsl 15 48 -1 1 0 0 empty empty empty 0 -9 0 10 -262144
-1 -1 3810 1;
#X floatatom 378 450 5 0 0 0 - - -, f 5;
#X obj 338 298 osc~ 0.125;
#X connect 8 0 13 0;
#X connect 9 0 10 0;
#X connect 9 0 13 0;
#X connect 10 0 11 0;
#X connect 11 0 12 0;
#X connect 13 0 14 0;
#X connect 14 0 15 0;
#X connect 16 0 10 0;
#X connect 16 0 8 0;
