#N canvas 1920 45 789 853 10;
#X obj 45 96 inlet~;
#X obj 45 123 s~ \$0.in;
#X obj 43 187 r~ \$0.out;
#X obj 43 214 outlet~;
#X obj 180 101 r~ \$0.in;
#X obj 180 128 +~ 1;
#X obj 180 155 *~ 0.5;
#X obj 180 182 s~ \$0.out;
#X connect 0 0 1 0;
#X connect 2 0 3 0;
#X connect 4 0 5 0;
#X connect 5 0 6 0;
#X connect 6 0 7 0;
