#N canvas 2711 45 647 853 10;
#X obj 50 152 outlet~;
#X obj 31 44 inlet~;
#X obj 153 44 inlet~;
#X obj 153 71 s~ \$0.pan;
#X obj 50 125 r~ \$0.out1;
#X obj 144 152 outlet~;
#X obj 144 125 r~ \$0.out2;
#X obj 259 156 cos~;
#X obj 357 156 cos~;
#X obj 259 183 +~;
#X obj 259 210 *~ 0.707;
#X obj 341 183 -~;
#X obj 341 210 *~ 0.707;
#X obj 244 264 *~;
#X obj 326 264 *~;
#X obj 260 103 *~ 0.125;
#X obj 357 129 +~ 0.25;
#X obj 260 76 r~ \$0.pan;
#X obj 244 291 s~ \$0.out1;
#X obj 326 291 s~ \$0.out2;
#X obj 31 71 s~ \$0.sig;
#X obj 244 237 r~ \$0.sig;
#X connect 1 0 20 0;
#X connect 2 0 3 0;
#X connect 4 0 0 0;
#X connect 6 0 5 0;
#X connect 7 0 9 0;
#X connect 7 0 11 0;
#X connect 8 0 9 1;
#X connect 8 0 11 1;
#X connect 9 0 10 0;
#X connect 10 0 13 1;
#X connect 11 0 12 0;
#X connect 12 0 14 1;
#X connect 13 0 18 0;
#X connect 14 0 19 0;
#X connect 15 0 7 0;
#X connect 15 0 16 0;
#X connect 16 0 8 0;
#X connect 17 0 15 0;
#X connect 21 0 13 0;
#X connect 21 0 14 0;
