#N canvas 1920 45 789 853 10;
#X obj 38 32 cnv 15 480 48 empty empty cppan~ 10 22 0 32 -99865 -262144
0;
#X obj 38 91 cnv 15 480 400 empty empty about 10 22 0 32 -258958 -262144
0;
#X text 50 151 DESCRIPTION;
#X text 50 261 INLETS (Left to Right);
#X text 50 351 OUTLETS (Left to Right);
#X text 50 281 1st -> (~) Signal 1;
#X text 50 371 1st -> (~) Scaled signal 1;
#X text 50 381 2nd -> (~) Scaled signal 2;
#X text 50 291 2nd -> (~) Pan (-1 to 1);
#X obj 278 265 noise~;
#X obj 278 287 bp~ 880 5;
#X obj 278 309 *~ 0.5;
#X obj 278 331 *~;
#X obj 278 353 cppan~;
#X obj 278 375 dac~;
#X obj 405 298 hsl 64 15 -1 1 0 1 empty empty Panning -2 -8 0 10 -262144
-1 -1 3150 1;
#X floatatom 402 318 5 -1 1 0 - - -, f 5;
#X obj 402 337 lop~ 64;
#X obj 344 316 tgl 15 0 empty empty mute 17 7 0 10 -262144 -1 -1 0
1;
#X text 50 171 [cppan~] allows for fading a signal between two outlets
using a constant power panning curve.;
#X connect 9 0 10 0;
#X connect 10 0 11 0;
#X connect 11 0 12 0;
#X connect 12 0 13 0;
#X connect 13 0 14 0;
#X connect 13 1 14 1;
#X connect 15 0 16 0;
#X connect 16 0 17 0;
#X connect 17 0 13 1;
#X connect 18 0 12 1;
