#N canvas 1920 45 789 853 10;
#X obj 119 44 inlet~;
#X obj 50 152 outlet~;
#X obj 31 44 inlet~;
#X obj 119 71 s~ \$0.sig2;
#X obj 213 44 inlet~;
#X obj 213 71 s~ \$0.pan;
#X obj 31 71 s~ \$0.sig1;
#X obj 390 135 cos~;
#X obj 488 135 cos~;
#X obj 390 162 +~;
#X obj 390 189 *~ 0.707;
#X obj 472 162 -~;
#X obj 472 189 *~ 0.707;
#X obj 375 243 *~;
#X obj 457 243 *~;
#X obj 391 82 *~ 0.125;
#X obj 488 108 +~ 0.25;
#X obj 391 55 r~ \$0.pan;
#X obj 375 216 r~ \$0.sig1;
#X obj 457 216 r~ \$0.sig2;
#X obj 413 275 s~ \$0.out;
#X obj 50 125 r~ \$0.out;
#X connect 0 0 3 0;
#X connect 2 0 6 0;
#X connect 4 0 5 0;
#X connect 7 0 9 0;
#X connect 7 0 11 0;
#X connect 8 0 9 1;
#X connect 8 0 11 1;
#X connect 9 0 10 0;
#X connect 10 0 13 1;
#X connect 11 0 12 0;
#X connect 12 0 14 1;
#X connect 13 0 20 0;
#X connect 14 0 20 0;
#X connect 15 0 7 0;
#X connect 15 0 16 0;
#X connect 16 0 8 0;
#X connect 17 0 15 0;
#X connect 18 0 13 0;
#X connect 19 0 14 0;
#X connect 21 0 1 0;
