#N canvas 0 0 944 981 10;
#X obj 38 502 cnv 15 480 120 empty empty inlets 10 22 0 32 -258958
-262144 0;
#X obj 38 633 cnv 15 480 120 empty empty outlets 10 22 0 32 -258958
-262144 0;
#X obj 38 32 cnv 15 480 48 empty empty df 10 22 0 32 -99865 -262144
0;
#X obj 38 91 cnv 15 480 400 empty empty about 10 22 0 32 -258958 -262144
0;
#X text 50 141 DESCRIPTION;
#X text 50 231 INLETS (Left to Right);
#X obj 38 764 cnv 15 480 90 empty empty patch 10 22 0 32 -258958 -262144
0;
#X text 50 181 OPTIONAL EXTRA STUFF;
#X text 50 331 ARGUMENTS;
#X text 50 401 OUTLETS (Left to Right);
#X text 50 161 Data rate filter. A shitty iir lpf for data.;
#X text 50 201 For the rate: 1 is instantaneous and 0 is frozen.;
#X obj 48 552 inlet;
#X obj 122 552 inlet;
#X obj 48 579 s \$0.value;
#X obj 48 683 r \$0.out;
#X obj 48 710 outlet;
#N canvas 428 131 527 523 df 0;
#X obj 100 210 clip 0 1;
#X msg 187 274 1 \$1;
#X obj 100 237 t f f;
#X obj 187 301 -;
#X obj 172 328 *;
#X obj 81 264 *;
#X obj 81 345 +;
#X obj 81 379 t f f;
#X obj 100 183 f \$1;
#X obj 120 129 f;
#X obj 81 48 metro 1;
#X obj 81 21 loadbang;
#X obj 108 406 s \$0.fb;
#X obj 135 102 r \$0.fb;
#X obj 137 58 r \$0.value;
#X obj 121 158 r \$0.rate;
#X obj 81 433 s \$0.out;
#X obj 81 75 f;
#X obj 81 102 t f b b;
#X connect 0 0 2 0;
#X connect 1 0 3 0;
#X connect 2 0 5 1;
#X connect 2 1 1 0;
#X connect 3 0 4 1;
#X connect 4 0 6 1;
#X connect 5 0 6 0;
#X connect 6 0 7 0;
#X connect 7 0 16 0;
#X connect 7 1 12 0;
#X connect 8 0 0 0;
#X connect 9 0 4 0;
#X connect 10 0 17 0;
#X connect 11 0 10 0;
#X connect 13 0 9 1;
#X connect 14 0 17 1;
#X connect 15 0 8 1;
#X connect 17 0 18 0;
#X connect 18 0 5 0;
#X connect 18 1 8 0;
#X connect 18 2 9 0;
#X restore 49 814 pd df;
#X text 50 251 1st -> (f) Input data;
#X text 50 421 1st -> (f) Filtered data;
#X text 50 261 2nd -> (f) Filter rate;
#X text 50 351 \$1 -> (f) Initial rate;
#X obj 122 579 s \$0.rate;
#X connect 12 0 14 0;
#X connect 13 0 22 0;
#X connect 15 0 16 0;
