#N canvas 1920 45 789 853 10;
#X obj 41 62 inlet;
#X obj 125 62 inlet;
#X obj 41 89 s \$0.value;
#X obj 41 193 r \$0.out;
#X obj 41 220 outlet;
#X obj 387 221 clip 0 1;
#X msg 480 285 1 \$1;
#X obj 387 248 t f f;
#X obj 480 312 -;
#X obj 465 339 *;
#X obj 364 275 *;
#X obj 364 356 +;
#X obj 364 390 t f f;
#X obj 387 194 f \$1;
#X obj 410 140 f;
#X obj 364 32 loadbang;
#X obj 396 417 s \$0.fb;
#X obj 428 113 r \$0.fb;
#X obj 430 69 r \$0.value;
#X obj 364 444 s \$0.out;
#X obj 364 86 f;
#X obj 364 113 t f b b;
#X obj 364 59 metro \$2;
#X obj 205 62 inlet;
#X obj 125 89 s \$0.coef;
#X obj 412 169 r \$0.coef;
#X obj 205 89 s \$0.rate;
#X obj 434 32 r \$0.rate;
#X connect 0 0 2 0;
#X connect 1 0 24 0;
#X connect 3 0 4 0;
#X connect 5 0 7 0;
#X connect 6 0 8 0;
#X connect 7 0 10 1;
#X connect 7 1 6 0;
#X connect 8 0 9 1;
#X connect 9 0 11 1;
#X connect 10 0 11 0;
#X connect 11 0 12 0;
#X connect 12 0 19 0;
#X connect 12 1 16 0;
#X connect 13 0 5 0;
#X connect 14 0 9 0;
#X connect 15 0 22 0;
#X connect 17 0 14 1;
#X connect 18 0 20 1;
#X connect 20 0 21 0;
#X connect 21 0 10 0;
#X connect 21 1 13 0;
#X connect 21 2 14 0;
#X connect 22 0 20 0;
#X connect 23 0 26 0;
#X connect 25 0 13 1;
#X connect 27 0 22 1;
