#N canvas 0 50 955 981 10;
#X obj 38 502 cnv 15 480 120 empty empty inlets 10 22 0 32 -258958
-262144 0;
#X obj 38 633 cnv 15 480 120 empty empty outlets 10 22 0 32 -258958
-262144 0;
#X obj 38 32 cnv 15 480 48 empty empty dub~ 10 22 0 32 -99865 -262144
0;
#X obj 38 91 cnv 15 480 400 empty empty about 10 22 0 32 -258958 -262144
0;
#X text 50 141 DESCRIPTION;
#X text 50 301 INLETS (Left to Right);
#X obj 38 764 cnv 15 480 90 empty empty patch 10 22 0 32 -258958 -262144
0;
#X text 50 381 ARGUMENTS;
#X obj 48 710 outlet~;
#X text 50 441 OUTLETS (Left to Right);
#X obj 48 552 inlet~;
#X obj 122 552 inlet~;
#X obj 127 710 outlet~;
#X obj 48 683 r~ \$0.out.l;
#X obj 128 683 r~ \$0.out.r;
#X obj 48 579 s~ \$0.in.l;
#X obj 122 579 s~ \$0.in.r;
#N canvas 960 50 944 981 dub~ 0;
#X obj 73 761 delwrite~ \$0-a \$1;
#X obj 237 761 delwrite~ \$0-b \$1;
#X obj 417 761 delwrite~ \$0-c \$1;
#X obj 582 761 delwrite~ \$0-d \$1;
#X obj 72 565 vd~ \$0-a;
#X obj 72 593 +~;
#X obj 236 593 -~;
#X obj 432 593 +~;
#X obj 597 593 -~;
#X obj 72 630 +~;
#X obj 582 630 -~;
#X obj 237 630 +~;
#X obj 417 630 -~;
#X obj 237 660 *~;
#X obj 72 660 *~;
#X obj 417 660 *~;
#X obj 582 660 *~;
#X obj 165 100 / 2;
#X obj 101 317 random 10000;
#X obj 101 339 / 10000;
#X obj 117 505 osc~;
#X obj 138 235 random 10000;
#X obj 133 261 / 10000;
#X obj 72 543 +~;
#X obj 297 505 osc~;
#X obj 318 235 random 10000;
#X obj 318 257 / 10000;
#X obj 252 543 +~;
#X obj 477 505 osc~;
#X obj 498 235 random 10000;
#X obj 498 257 / 10000;
#X obj 432 543 +~;
#X obj 657 505 osc~;
#X obj 678 235 random 10000;
#X obj 678 257 / 10000;
#X obj 612 543 +~;
#X obj 612 240 * 0.95;
#X obj 432 240 * 0.85;
#X obj 252 565 vd~ \$0-b;
#X obj 432 565 vd~ \$0-c;
#X obj 612 565 vd~ \$0-d;
#X obj 180 -38 loadbang;
#X obj 187 761 *~ 0.5;
#X obj 23 761 *~ 0.5;
#X obj 72 707 lop~;
#X obj 237 707 lop~;
#X obj 417 707 lop~;
#X obj 582 707 lop~;
#X obj 72 218 t f b b;
#X obj 72 240 * 0.65;
#X obj 252 240 * 0.75;
#X obj 252 218 t f b b;
#X obj 432 218 t f b b;
#X obj 612 218 t f b b;
#X obj 101 448 pack;
#X obj 101 470 line~;
#X obj 128 382 random 10000;
#X obj 128 404 + 5000;
#X obj 128 426 t f f;
#X obj 156 462 delay;
#X obj 101 290 t b b;
#X obj 287 318 random 10000;
#X obj 287 340 / 10000;
#X obj 287 449 pack;
#X obj 287 471 line~;
#X obj 314 383 random 10000;
#X obj 314 405 + 5000;
#X obj 314 427 t f f;
#X obj 342 463 delay;
#X obj 287 291 t b b;
#X obj 464 322 random 10000;
#X obj 464 344 / 10000;
#X obj 464 453 pack;
#X obj 464 475 line~;
#X obj 491 387 random 10000;
#X obj 491 409 + 5000;
#X obj 491 431 t f f;
#X obj 519 467 delay;
#X obj 464 295 t b b;
#X obj 622 321 random 10000;
#X obj 622 343 / 10000;
#X obj 622 452 pack;
#X obj 622 474 line~;
#X obj 649 386 random 10000;
#X obj 649 408 + 5000;
#X obj 649 430 t f f;
#X obj 677 466 delay;
#X obj 622 294 t b b;
#X obj 101 361 * 2;
#X obj 287 362 * 2;
#X obj 464 366 * 2;
#X obj 622 365 * 2;
#X obj 117 527 *~ 0.1;
#X obj 297 527 *~ 0.1;
#X obj 477 527 *~ 0.1;
#X obj 657 527 *~ 0.1;
#X obj 72 521 -~ 0.1;
#X obj 252 521 -~ 0.1;
#X obj 432 521 -~ 0.1;
#X obj 612 521 -~ 0.1;
#X obj 83 734 r~ \$0.in.l;
#X obj 247 734 r~ \$0.in.r;
#X obj 23 787 s~ \$0.out.l;
#X obj 72 -33 r \$0.time;
#X obj 165 51 r \$0.fb;
#X obj 236 -16 r \$0.filter;
#X obj 187 788 s~ \$0.out.r;
#X obj 72 128 t f f f f;
#X obj 165 127 lop~ 128;
#X obj 236 38 t f f f f;
#X obj 72 101 f \$1;
#X obj 165 78 f \$2;
#X obj 236 11 f \$3;
#X obj 72 -6 unpack f f f;
#X obj 180 -16 t b b b;
#X connect 4 0 5 0;
#X connect 4 0 6 0;
#X connect 5 0 9 0;
#X connect 5 0 12 0;
#X connect 6 0 11 0;
#X connect 6 0 10 0;
#X connect 7 0 12 1;
#X connect 7 0 9 1;
#X connect 8 0 11 1;
#X connect 8 0 10 1;
#X connect 9 0 14 0;
#X connect 10 0 16 0;
#X connect 11 0 13 0;
#X connect 12 0 15 0;
#X connect 13 0 45 0;
#X connect 14 0 44 0;
#X connect 15 0 46 0;
#X connect 16 0 47 0;
#X connect 17 0 108 0;
#X connect 18 0 19 0;
#X connect 19 0 88 0;
#X connect 20 0 92 0;
#X connect 21 0 22 0;
#X connect 22 0 20 1;
#X connect 23 0 4 0;
#X connect 24 0 93 0;
#X connect 25 0 26 0;
#X connect 26 0 24 1;
#X connect 27 0 38 0;
#X connect 28 0 94 0;
#X connect 29 0 30 0;
#X connect 30 0 28 1;
#X connect 31 0 39 0;
#X connect 32 0 95 0;
#X connect 33 0 34 0;
#X connect 34 0 32 1;
#X connect 35 0 40 0;
#X connect 36 0 99 0;
#X connect 37 0 98 0;
#X connect 38 0 6 1;
#X connect 38 0 5 1;
#X connect 39 0 7 0;
#X connect 39 0 8 0;
#X connect 40 0 8 1;
#X connect 40 0 7 1;
#X connect 41 0 114 0;
#X connect 42 0 106 0;
#X connect 43 0 102 0;
#X connect 44 0 0 0;
#X connect 44 0 43 0;
#X connect 45 0 1 0;
#X connect 45 0 42 0;
#X connect 46 0 2 0;
#X connect 47 0 3 0;
#X connect 48 0 49 0;
#X connect 48 1 60 0;
#X connect 48 2 21 0;
#X connect 49 0 96 0;
#X connect 50 0 97 0;
#X connect 51 0 50 0;
#X connect 51 1 69 0;
#X connect 51 2 25 0;
#X connect 52 0 37 0;
#X connect 52 1 78 0;
#X connect 52 2 29 0;
#X connect 53 0 36 0;
#X connect 53 1 87 0;
#X connect 53 2 33 0;
#X connect 54 0 55 0;
#X connect 55 0 20 0;
#X connect 56 0 57 0;
#X connect 57 0 58 0;
#X connect 58 0 54 1;
#X connect 58 1 59 0;
#X connect 59 0 60 0;
#X connect 60 0 18 0;
#X connect 60 1 56 0;
#X connect 61 0 62 0;
#X connect 62 0 89 0;
#X connect 63 0 64 0;
#X connect 64 0 24 0;
#X connect 65 0 66 0;
#X connect 66 0 67 0;
#X connect 67 0 63 1;
#X connect 67 1 68 0;
#X connect 68 0 69 0;
#X connect 69 0 61 0;
#X connect 69 1 65 0;
#X connect 70 0 71 0;
#X connect 71 0 90 0;
#X connect 72 0 73 0;
#X connect 73 0 28 0;
#X connect 74 0 75 0;
#X connect 75 0 76 0;
#X connect 76 0 72 1;
#X connect 76 1 77 0;
#X connect 77 0 78 0;
#X connect 78 0 70 0;
#X connect 78 1 74 0;
#X connect 79 0 80 0;
#X connect 80 0 91 0;
#X connect 81 0 82 0;
#X connect 82 0 32 0;
#X connect 83 0 84 0;
#X connect 84 0 85 0;
#X connect 85 0 81 1;
#X connect 85 1 86 0;
#X connect 86 0 87 0;
#X connect 87 0 79 0;
#X connect 87 1 83 0;
#X connect 88 0 54 0;
#X connect 89 0 63 0;
#X connect 90 0 72 0;
#X connect 91 0 81 0;
#X connect 92 0 23 1;
#X connect 93 0 27 1;
#X connect 94 0 31 1;
#X connect 95 0 35 1;
#X connect 96 0 23 0;
#X connect 97 0 27 0;
#X connect 98 0 31 0;
#X connect 99 0 35 0;
#X connect 100 0 0 0;
#X connect 101 0 1 0;
#X connect 103 0 113 0;
#X connect 104 0 111 0;
#X connect 105 0 112 0;
#X connect 107 0 48 0;
#X connect 107 1 51 0;
#X connect 107 2 52 0;
#X connect 107 3 53 0;
#X connect 108 0 14 1;
#X connect 108 0 13 1;
#X connect 108 0 15 1;
#X connect 108 0 16 1;
#X connect 109 0 44 1;
#X connect 109 1 45 1;
#X connect 109 2 46 1;
#X connect 109 3 47 1;
#X connect 110 0 107 0;
#X connect 111 0 17 0;
#X connect 112 0 109 0;
#X connect 113 0 110 0;
#X connect 113 1 111 0;
#X connect 113 2 112 0;
#X connect 114 0 110 0;
#X connect 114 1 111 0;
#X connect 114 2 112 0;
#X restore 49 814 pd dub~;
#X obj 264 552 inlet;
#X obj 264 579 s \$0.fb;
#X obj 320 552 inlet;
#X obj 320 579 s \$0.filter;
#X obj 196 552 inlet;
#X obj 196 579 s \$0.time;
#X text 50 401 \$1 -> (f) Delay time in ms;
#X text 50 411 \$2 -> (f) Feedback multiplier;
#X text 50 420 \$3 -> (f) Low pass cutoff frequency;
#X text 50 471 2nd -> (~) Right channel out;
#X text 50 461 1st -> (~) Left channel out;
#X text 50 321 1st -> (~) Left channel in;
#X text 50 331 2nd -> (~) Right channel in;
#X text 50 341 3rd -> (b) Delay time in ms;
#X text 50 351 4th -> (s) Feedback multiplier;
#X text 50 271 [dub~ 75 0.95 5000];
#X text 50 251 "NICE" SOUNDING ARGUEMENTS;
#X text 50 161 [dub~] is a shitty stereo reverb. If you want a realistic
simulation of acoustic reverberation then try using the [rev~] \, [rev~2]
\, or [rev3~] objects that come with pd. If you want to make something
sound like it comes from outer space via a low budget 1950's science
fiction film then use [dub~].;
#X text 50 361 5th -> (f) Low pass cutoff frequency;
#X connect 10 0 15 0;
#X connect 11 0 16 0;
#X connect 13 0 8 0;
#X connect 14 0 12 0;
#X connect 18 0 19 0;
#X connect 20 0 21 0;
#X connect 22 0 23 0;
