#N canvas 2783 45 575 853 10;
#X obj 35 64 inlet;
#X obj 35 91 s \$0.data;
#X obj 103 64 inlet;
#X obj 103 91 s \$0.voices;
#X obj 33 148 r \$0.out;
#X obj 33 175 outlet;
#X obj 183 163 list prepend;
#X obj 252 109 i;
#X obj 284 109 + 1;
#X obj 225 81 t a b;
#X obj 252 136 mod \$1;
#X obj 225 54 r \$0.data;
#X obj 316 109 r \$0.voices;
#X obj 183 190 s \$0.out;
#X connect 0 0 1 0;
#X connect 2 0 3 0;
#X connect 4 0 5 0;
#X connect 6 0 13 0;
#X connect 7 0 8 0;
#X connect 7 0 10 0;
#X connect 8 0 7 1;
#X connect 9 0 6 0;
#X connect 9 1 7 0;
#X connect 10 0 6 1;
#X connect 11 0 9 0;
#X connect 12 0 10 1;
