#N canvas -6 0 950 981 10;
#X obj 38 502 cnv 15 480 120 empty empty inlets 10 22 0 32 -258958
-262144 0;
#X obj 38 633 cnv 15 480 120 empty empty outlets 10 22 0 32 -258958
-262144 0;
#X obj 38 32 cnv 15 480 48 empty empty flatEnv~ 10 22 0 32 -99865 -262144
0;
#X obj 38 91 cnv 15 480 400 empty empty about 10 22 0 32 -258958 -262144
0;
#X text 50 161 DESCRIPTION;
#X text 50 361 INLETS (Left to Right);
#X obj 38 764 cnv 15 480 90 empty empty patch 10 22 0 32 -258958 -262144
0;
#X obj 48 710 outlet~;
#X text 50 431 OUTLETS (Left to Right);
#X obj 48 552 inlet;
#X obj 48 683 r~ \$0.env;
#X text 50 381 1st -> (f) Duration in ms;
#X text 50 451 1st -> (~) Envelope;
#X obj 140 552 inlet;
#X obj 48 579 s \$0.duration;
#X obj 140 579 s \$0.ratio;
#X text 50 391 2nd -> (f) Ratio;
#X text 50 251 RATIO STUFF;
#N canvas 955 181 362 357 flatEnv~ 0;
#X obj 57 256 vline~;
#X obj 57 93 t f f;
#X obj 57 202 pack;
#X obj 120 93 t f f;
#X msg 147 120 1 \$1;
#X obj 147 147 -;
#X msg 57 229 0 \, 1 \$1 \, 0 \$1 \$2;
#X obj 57 66 unpack f \$1;
#X obj 132 175 *;
#X obj 57 175 *;
#X obj 57 39 r \$0.duration;
#X obj 137 66 r \$0.ratio;
#X obj 57 283 s~ \$0.env;
#X connect 0 0 12 0;
#X connect 1 0 9 0;
#X connect 1 1 8 0;
#X connect 2 0 6 0;
#X connect 3 0 9 1;
#X connect 3 1 4 0;
#X connect 4 0 5 0;
#X connect 5 0 8 1;
#X connect 6 0 0 0;
#X connect 7 0 1 0;
#X connect 7 1 3 0;
#X connect 8 0 2 1;
#X connect 9 0 2 0;
#X connect 10 0 7 0;
#X connect 11 0 3 0;
#X restore 49 814 pd flatEnv~;
#X text 50 181 [flatEnv~] takes a duration and ratio and outputs a
flat topped envelope This can be used as a basic envelope \, for windowing
\, etc.;
#X text 50 271 This object essentially generates an attack \, sustain
\, and release stage over the course of the given duration. The ratio
controls the relationship between the attack/release stage and the
sustain stage. A ratio of 0.5 generates a triange. Anything higher
than 0.5 doesn't really work.;
#X connect 9 0 14 0;
#X connect 10 0 7 0;
#X connect 13 0 15 0;
