#N canvas 1920 45 861 853 10;
#X obj 38 46 inlet~;
#X obj 134 46 inlet~;
#X obj 230 46 inlet~;
#X obj 326 46 inlet~;
#X obj 38 73 s~ \$0.c.freq;
#X obj 134 73 s~ \$0.m.freq;
#X obj 326 73 s~ \$0.fb.amnt;
#X obj 230 73 s~ \$0.m.amnt;
#X obj 38 127 r~ \$0.out;
#X obj 38 154 outlet~;
#X obj 162 191 phasor~;
#X obj 162 380 +~;
#X obj 162 407 cos~;
#X obj 179 245 phasor~;
#X obj 179 299 cos~;
#X obj 179 353 *~;
#N canvas 1131 471 319 230 fb~ 0;
#X obj 55 75 inlet~;
#X obj 55 156 outlet~;
#X obj 55 102 +~;
#X obj 65 129 delwrite~ \$0.fb;
#X obj 105 32 delread~ \$0.fb;
#X obj 105 86 *~;
#X obj 200 156 block~ 1;
#X obj 120 58 inlet~;
#X connect 0 0 2 0;
#X connect 2 0 1 0;
#X connect 2 0 3 0;
#X connect 4 0 5 0;
#X connect 5 0 2 1;
#X connect 7 0 5 1;
#X restore 179 272 pd fb~;
#X obj 162 434 s~ \$0.out;
#X obj 162 164 r~ \$0.c.freq;
#X obj 179 218 r~ \$0.m.freq;
#X obj 197 326 r~ \$0.m.amnt;
#X obj 243 256 r~ \$0.fb.amnt;
#X connect 0 0 4 0;
#X connect 1 0 5 0;
#X connect 2 0 7 0;
#X connect 3 0 6 0;
#X connect 8 0 9 0;
#X connect 10 0 11 0;
#X connect 11 0 12 0;
#X connect 12 0 17 0;
#X connect 13 0 16 0;
#X connect 14 0 15 0;
#X connect 15 0 11 1;
#X connect 16 0 14 0;
#X connect 18 0 10 0;
#X connect 19 0 13 0;
#X connect 20 0 15 1;
#X connect 21 0 16 1;
