#N canvas 1920 45 861 853 10;
#X obj 38 46 inlet~;
#X obj 134 46 inlet~;
#X obj 230 46 inlet~;
#X obj 38 73 s~ \$0.c.freq;
#X obj 134 73 s~ \$0.m.freq;
#X obj 230 73 s~ \$0.m.amnt;
#X obj 38 127 r~ \$0.out;
#X obj 38 154 outlet~;
#X obj 162 191 phasor~;
#X obj 162 350 +~;
#X obj 162 377 cos~;
#X obj 179 245 phasor~;
#X obj 179 269 cos~;
#X obj 179 323 *~;
#X obj 162 404 s~ \$0.out;
#X obj 162 164 r~ \$0.c.freq;
#X obj 179 218 r~ \$0.m.freq;
#X obj 197 296 r~ \$0.m.amnt;
#X connect 0 0 3 0;
#X connect 1 0 4 0;
#X connect 2 0 5 0;
#X connect 6 0 7 0;
#X connect 8 0 9 0;
#X connect 9 0 10 0;
#X connect 10 0 14 0;
#X connect 11 0 12 0;
#X connect 12 0 13 0;
#X connect 13 0 9 1;
#X connect 15 0 8 0;
#X connect 16 0 11 0;
#X connect 17 0 13 1;
