#N canvas 0 0 944 981 10;
#X obj 38 502 cnv 15 480 120 empty empty inlets 10 22 0 32 -258958
-262144 0;
#X obj 38 633 cnv 15 480 120 empty empty outlets 10 22 0 32 -258958
-262144 0;
#X obj 38 32 cnv 15 480 48 empty empty fmOsc~ 10 22 0 32 -99865 -262144
0;
#X obj 38 91 cnv 15 480 400 empty empty about 10 22 0 32 -258958 -262144
0;
#X text 50 131 DESCRIPTION;
#X text 50 361 INLETS (Left to Right);
#X obj 38 764 cnv 15 480 90 empty empty patch 10 22 0 32 -258958 -262144
0;
#X text 50 441 OUTLETS (Left to Right);
#X obj 48 552 inlet~;
#X obj 134 552 inlet~;
#X obj 220 552 inlet~;
#X obj 306 552 inlet~;
#X obj 48 579 s~ \$0.c.freq;
#X obj 134 579 s~ \$0.m.freq;
#X obj 306 579 s~ \$0.fb.amnt;
#X obj 220 579 s~ \$0.m.amnt;
#X text 50 381 1st -> (~) Carrier frequency;
#X text 50 391 2nd -> (~) Modulator frequency;
#X text 50 401 3rd -> (~) Modulator amplitude;
#X text 50 411 4th -> (~) Feedback ammount;
#X text 50 461 1st -> (~) FM tone;
#N canvas 976 50 399 387 fmOsc~ 0;
#X obj 53 50 phasor~;
#X obj 53 239 +~;
#X obj 53 266 cos~;
#X obj 68 104 phasor~;
#X obj 68 158 cos~;
#X obj 68 212 *~;
#N canvas 1131 471 319 230 fb~ 0;
#X obj 55 75 inlet~;
#X obj 55 156 outlet~;
#X obj 55 102 +~;
#X obj 65 129 delwrite~ \$0.fb;
#X obj 105 32 delread~ \$0.fb;
#X obj 105 86 *~;
#X obj 200 156 block~ 1;
#X obj 120 58 inlet~;
#X connect 0 0 2 0;
#X connect 2 0 1 0;
#X connect 2 0 3 0;
#X connect 4 0 5 0;
#X connect 5 0 2 1;
#X connect 7 0 5 1;
#X restore 68 131 pd fb~;
#X obj 53 293 s~ \$0.out;
#X obj 53 23 r~ \$0.c.freq;
#X obj 68 77 r~ \$0.m.freq;
#X obj 83 185 r~ \$0.m.amnt;
#X obj 122 115 r~ \$0.fb.amnt;
#X connect 0 0 1 0;
#X connect 1 0 2 0;
#X connect 2 0 7 0;
#X connect 3 0 6 0;
#X connect 4 0 5 0;
#X connect 5 0 1 1;
#X connect 6 0 4 0;
#X connect 8 0 0 0;
#X connect 9 0 3 0;
#X connect 10 0 5 1;
#X connect 11 0 6 1;
#X restore 49 814 pd fmOsc~;
#X text 50 151 [fmOsc~] is a simple 2 operator frequency/phase modulation
synthesizer with feedback control.;
#X text 50 191 SUGGESTED INPUT RANGES;
#X text 50 311 Feedback Ammount -> 0 to 1/10ish. A little bit of feedback
goes a LONG way.;
#X text 50 211 Carrier frequency -> Anything.;
#X text 50 231 Modulator frequency -> Multiples of the carrier frequency
are good for intstrument sounding things;
#X text 50 271 Modulator amp -> 0 to 1 is nice. Anything far past that
sounds super metallic and gross.;
#X obj 48 683 r~ \$0.out;
#X obj 48 710 outlet~;
#X connect 8 0 12 0;
#X connect 9 0 13 0;
#X connect 10 0 15 0;
#X connect 11 0 14 0;
#X connect 28 0 29 0;
