#N canvas 1920 45 861 853 10;
#X obj 49 50 inlet;
#X obj 48 146 outlet;
#X obj 48 118 r \$0.out;
#X obj 49 77 s \$0.list;
#X obj 233 198 until;
#X obj 233 225 f;
#X obj 264 225 +;
#X obj 360 307 t f f;
#X obj 360 354 > 0;
#X obj 387 354 < 0;
#X obj 306 307 t f f;
#X obj 233 279 t f f;
#X obj 233 401 &&;
#X obj 233 354 <;
#X obj 318 354 >;
#X obj 372 401 &&;
#X obj 233 448 ||;
#X obj 351 615 f;
#X obj 320 147 t f f;
#X obj 233 252 t f f;
#X obj 233 485 sel 1 0;
#X obj 233 146 t b f;
#X obj 260 174 r \$0.stop;
#X obj 272 512 s \$0.stop;
#X obj 233 42 r \$0.list;
#X obj 351 642 s \$0.out;
#X obj 233 89 pack \$1 \$2 \$3;
#X obj 233 119 unpack f f f;
#X connect 0 0 3 0;
#X connect 2 0 1 0;
#X connect 4 0 5 0;
#X connect 5 0 6 0;
#X connect 5 0 19 0;
#X connect 6 0 5 1;
#X connect 7 0 8 0;
#X connect 7 1 9 0;
#X connect 8 0 12 1;
#X connect 9 0 15 1;
#X connect 10 0 13 1;
#X connect 10 1 14 1;
#X connect 11 0 13 0;
#X connect 11 1 14 0;
#X connect 12 0 16 0;
#X connect 13 0 12 0;
#X connect 14 0 15 0;
#X connect 15 0 16 1;
#X connect 16 0 20 0;
#X connect 17 0 25 0;
#X connect 18 0 6 1;
#X connect 18 1 7 0;
#X connect 19 0 11 0;
#X connect 19 1 17 1;
#X connect 20 0 17 0;
#X connect 20 1 23 0;
#X connect 21 0 4 0;
#X connect 21 1 5 1;
#X connect 22 0 4 1;
#X connect 24 0 26 0;
#X connect 26 0 27 0;
#X connect 27 0 21 0;
#X connect 27 1 10 0;
#X connect 27 2 18 0;
