#N canvas 1920 45 861 853 10;
#X obj 39 23 inlet;
#X obj 51 127 outlet;
#X obj 51 99 r \$0.out;
#X obj 39 50 s \$0.hot;
#X obj 101 23 inlet;
#X obj 101 50 s \$0.cold;
#X obj 154 188 f;
#X obj 186 187 +;
#X obj 217 123 r \$0.cold;
#X obj 154 123 r \$0.hot;
#X obj 154 215 s \$0.out;
#X obj 154 150 t b f;
#X connect 0 0 3 0;
#X connect 2 0 1 0;
#X connect 4 0 5 0;
#X connect 6 0 7 0;
#X connect 6 0 10 0;
#X connect 7 0 6 1;
#X connect 8 0 6 1;
#X connect 9 0 11 0;
#X connect 11 0 6 0;
#X connect 11 1 7 1;
