#N canvas 1344 45 574 323 10;
#X obj 38 502 cnv 15 480 120 empty empty inlets 10 22 0 32 -258958
-262144 0;
#X obj 38 633 cnv 15 480 120 empty empty outlets 10 22 0 32 -258958
-262144 0;
#X obj 38 32 cnv 15 480 48 empty empty inc 10 22 0 32 -99865 -262144
0;
#X obj 48 552 inlet;
#X obj 48 711 outlet;
#X obj 48 683 r \$0.out;
#X obj 38 91 cnv 15 480 400 empty empty about 10 22 0 32 -258958 -262144
0;
#X text 50 141 DESCRIPTION;
#X text 49 204 INLETS (Left to Right);
#X obj 38 764 cnv 15 480 90 empty empty patch 10 22 0 32 -258958 -262144
0;
#N canvas 1344 45 574 235 inc 0;
#X obj 60 116 f;
#X obj 92 115 +;
#X obj 123 51 r \$0.cold;
#X obj 60 51 r \$0.hot;
#X obj 60 143 s \$0.out;
#X obj 60 78 t b f;
#X connect 0 0 1 0;
#X connect 0 0 4 0;
#X connect 1 0 0 1;
#X connect 2 0 0 1;
#X connect 3 0 5 0;
#X connect 5 0 0 0;
#X connect 5 1 1 1;
#X restore 49 814 pd inc;
#X obj 48 579 s \$0.hot;
#X obj 110 552 inlet;
#X obj 110 579 s \$0.cold;
#X text 50 161 [inc] is a simple numerical incrementer.;
#X text 49 284 OUTLETS;
#X text 49 244 2nd -> (f) Set current value;
#X text 49 304 \$1 -> (f) Number;
#X text 49 224 1st -> (f) Output current value and add number;
#X text 49 234 " " -> (b) Output current value;
#X connect 3 0 11 0;
#X connect 5 0 4 0;
#X connect 12 0 13 0;
