#N canvas 1440 281 478 206 10;
#X obj 38 502 cnv 15 480 120 empty empty inlets 10 22 0 32 -258958
-262144 0;
#X obj 38 633 cnv 15 480 120 empty empty outlets 10 22 0 32 -258958
-262144 0;
#X obj 38 32 cnv 15 480 48 empty empty lfoMod~ 10 22 0 32 -99865 -262144
0;
#X obj 38 91 cnv 15 480 400 empty empty about 10 22 0 32 -258958 -262144
0;
#X text 50 141 DESCRIPTION;
#X text 50 261 INLETS (Left to Right);
#X obj 38 764 cnv 15 480 90 empty empty patch 10 22 0 32 -258958 -262144
0;
#X text 50 361 OUTLETS (Left to Right);
#X obj 48 552 inlet~;
#X obj 48 579 s~ \$0.sig;
#X obj 116 552 inlet~;
#X obj 116 579 s~ \$0.freq;
#X obj 190 552 inlet~;
#X obj 190 579 s~ \$0.amp;
#X obj 258 552 inlet;
#X obj 258 579 s \$0.phase;
#N canvas 1440 439 478 364 lfoMod~ 1;
#X obj 48 160 r~ \$0.sig;
#X obj 48 187 *~;
#X obj 116 63 r~ \$0.freq;
#X obj 154 128 r~ \$0.amp;
#X obj 137 90 r \$0.phase;
#X obj 116 144 *~;
#X obj 116 171 +~ 1;
#X obj 48 214 s~ \$0.out;
#X obj 116 117 osc~;
#X connect 0 0 1 0;
#X connect 1 0 7 0;
#X connect 2 0 8 0;
#X connect 3 0 5 1;
#X connect 4 0 8 1;
#X connect 5 0 6 0;
#X connect 6 0 1 1;
#X connect 8 0 5 0;
#X restore 49 814 pd lfoMod~;
#X text 50 281 1st -> (~) Signal to be modulated;
#X text 50 161 [lfoMod~] is a simple (co)sinusoidal signal modulator.
It can be used as an LFO to implement things like vibrato or tremelo
or used at audio rate in the creation of something like a ring modulator.
;
#X text 50 291 2nd -> (~) Frequency of modulation;
#X text 50 301 3rd -> (~) Amplitude of modulation;
#X text 50 311 4th -> (f) Set phase of modulator;
#X text 50 381 1st -> (~) Modulated signal;
#X obj 48 683 r~ \$0.out;
#X obj 48 710 outlet~;
#X connect 8 0 9 0;
#X connect 10 0 11 0;
#X connect 12 0 13 0;
#X connect 14 0 15 0;
#X connect 23 0 24 0;
