#N canvas 1920 45 861 853 10;
#X obj 63 69 inlet;
#X obj 147 69 inlet;
#X obj 225 70 inlet;
#X obj 63 96 s \$0.value;
#X obj 147 96 s \$0.min1;
#X obj 225 97 s \$0.max1;
#X obj 303 70 inlet;
#X obj 381 70 inlet;
#X obj 303 97 s \$0.min2;
#X obj 381 97 s \$0.max2;
#X obj 63 228 outlet;
#X obj 63 200 r \$0.out;
#X obj 591 352 f \$1;
#X obj 564 325 f \$2;
#X obj 564 379 -;
#X obj 429 314 f;
#X obj 456 341 f \$1;
#X obj 429 369 -;
#X obj 429 396 /;
#X obj 321 358 f \$3;
#X obj 294 331 f \$4;
#X obj 294 386 -;
#X obj 294 413 *;
#X obj 209 309 f \$3;
#X obj 209 430 +;
#X obj 209 458 s \$0.out;
#X obj 612 325 r \$0.min1;
#X obj 477 314 r \$0.min1;
#X obj 315 303 r \$0.max2;
#X obj 342 330 r \$0.min1;
#X obj 230 281 r \$0.min1;
#X obj 585 298 r \$0.min2;
#X obj 209 170 r \$0.value;
#X obj 564 271 t b b;
#X obj 429 286 t b b;
#X obj 294 276 t b b;
#X obj 209 234 t b b b b;
#X obj 209 197 t b f;
#X connect 0 0 3 0;
#X connect 1 0 4 0;
#X connect 2 0 5 0;
#X connect 6 0 8 0;
#X connect 7 0 9 0;
#X connect 11 0 10 0;
#X connect 12 0 14 1;
#X connect 13 0 14 0;
#X connect 14 0 18 1;
#X connect 15 0 17 0;
#X connect 16 0 17 1;
#X connect 17 0 18 0;
#X connect 18 0 22 1;
#X connect 19 0 21 1;
#X connect 20 0 21 0;
#X connect 21 0 22 0;
#X connect 22 0 24 1;
#X connect 23 0 24 0;
#X connect 24 0 25 0;
#X connect 26 0 12 1;
#X connect 27 0 16 1;
#X connect 28 0 20 1;
#X connect 29 0 19 1;
#X connect 30 0 23 1;
#X connect 31 0 13 1;
#X connect 32 0 37 0;
#X connect 33 0 13 0;
#X connect 33 1 12 0;
#X connect 34 0 15 0;
#X connect 34 1 16 0;
#X connect 35 0 20 0;
#X connect 35 1 19 0;
#X connect 36 0 23 0;
#X connect 36 1 35 0;
#X connect 36 2 34 0;
#X connect 36 3 33 0;
#X connect 37 0 36 0;
#X connect 37 1 15 1;
