#N canvas 7 50 944 981 10;
#X obj 38 502 cnv 15 480 120 empty empty inlets 10 22 0 32 -258958
-262144 0;
#X obj 38 633 cnv 15 480 120 empty empty outlets 10 22 0 32 -258958
-262144 0;
#X obj 38 32 cnv 15 480 48 empty empty map 10 22 0 32 -99865 -262144
0;
#X obj 48 552 inlet;
#X obj 132 552 inlet;
#X obj 210 553 inlet;
#X obj 48 579 s \$0.value;
#X obj 132 579 s \$0.min1;
#X obj 210 580 s \$0.max1;
#X obj 288 553 inlet;
#X obj 366 553 inlet;
#X obj 288 580 s \$0.min2;
#X obj 366 580 s \$0.max2;
#X obj 48 711 outlet;
#X obj 48 683 r \$0.out;
#X obj 38 91 cnv 15 480 400 empty empty about 10 22 0 32 -258958 -262144
0;
#X text 50 141 DESCRIPTION;
#X text 50 241 INLETS (Left to Right);
#X text 50 341 ARGUMENTS;
#X text 50 281 3rd -> (f) Upper value for starting range;
#X text 50 291 4th -> (f) Lower value for ending range;
#X text 50 301 5th -> (f) Upper value for ending range;
#X text 50 361 \$1 -> (f) Lower value for starting range;
#X text 50 371 \$2 -> (f) Upper value for starting range;
#X text 50 381 \$3 -> (f) Lower value for ending range;
#X text 50 391 \$4 -> (f) Upper value for ending range;
#X obj 38 764 cnv 15 480 90 empty empty patch 10 22 0 32 -258958 -262144
0;
#X text 50 271 2nd -> (f) Lower value for starting range;
#X text 50 261 1st -> (f) Value to be scaled;
#N canvas 0 50 645 462 map 0;
#X obj 283 209 f \$1;
#X obj 256 182 f \$2;
#X obj 256 236 -;
#X obj 121 171 f;
#X obj 148 198 f \$1;
#X obj 121 226 -;
#X obj 121 253 /;
#X obj 13 215 f \$3;
#X obj -14 188 f \$4;
#X obj -14 243 -;
#X obj -14 270 *;
#X obj -99 166 f \$3;
#X obj -99 287 +;
#X obj -99 315 s \$0.out;
#X obj 304 182 r \$0.min1;
#X obj 169 171 r \$0.min1;
#X obj 7 160 r \$0.max2;
#X obj 34 187 r \$0.min1;
#X obj -78 138 r \$0.min1;
#X obj 277 155 r \$0.min2;
#X obj -99 27 r \$0.value;
#X obj 256 128 t b b;
#X obj 121 143 t b b;
#X obj -14 133 t b b;
#X obj -99 91 t b b b b;
#X obj -99 54 t b f;
#X connect 0 0 2 1;
#X connect 1 0 2 0;
#X connect 2 0 6 1;
#X connect 3 0 5 0;
#X connect 4 0 5 1;
#X connect 5 0 6 0;
#X connect 6 0 10 1;
#X connect 7 0 9 1;
#X connect 8 0 9 0;
#X connect 9 0 10 0;
#X connect 10 0 12 1;
#X connect 11 0 12 0;
#X connect 12 0 13 0;
#X connect 14 0 0 1;
#X connect 15 0 4 1;
#X connect 16 0 8 1;
#X connect 17 0 7 1;
#X connect 18 0 11 1;
#X connect 19 0 1 1;
#X connect 20 0 25 0;
#X connect 21 0 1 0;
#X connect 21 1 0 0;
#X connect 22 0 3 0;
#X connect 22 1 4 0;
#X connect 23 0 8 0;
#X connect 23 1 7 0;
#X connect 24 0 11 0;
#X connect 24 1 23 0;
#X connect 24 2 22 0;
#X connect 24 3 21 0;
#X connect 25 0 24 0;
#X connect 25 1 3 1;
#X restore 49 814 pd map;
#X text 49 424 OUTLETS;
#X text 49 444 \$1 -> (f) Scaled value;
#X text 50 161 [map] is PD implementation of the processing.org map()
function. [map] linearly scales a value from one numerical range to
another.;
#X connect 3 0 6 0;
#X connect 4 0 7 0;
#X connect 5 0 8 0;
#X connect 9 0 11 0;
#X connect 10 0 12 0;
#X connect 14 0 13 0;
