#N canvas 2783 45 575 853 10;
#X obj 50 38 inlet;
#X obj 50 65 s \$0.bang;
#X obj 124 38 inlet;
#X obj 124 65 s \$0.array;
#X obj 54 136 outlet;
#X obj 54 109 r \$0.out;
#N canvas 0 50 1342 1033 sort 0;
#X obj 338 284 until;
#X obj 370 318 + 1;
#X obj 338 345 t f f;
#X obj 338 230 t b b;
#X obj 338 399 sel 0 1;
#X obj 387 429 i;
#X obj 338 318 i;
#X msg 383 291 1;
#X obj 319 122 until;
#X msg 358 176 0;
#X obj 387 456 t f f;
#X obj 548 661 - 1;
#X obj 548 688 t f f;
#X obj 544 812 pack;
#X obj 544 785 i;
#X obj 726 812 pack;
#X obj 726 785 i;
#X obj 730 678 t f f;
#X obj 631 647 t b b;
#X obj 387 483 t f f;
#X obj 387 510 - 1;
#X obj 387 563 >;
#X obj 319 149 t b b b;
#X obj 387 590 sel 1;
#X obj 387 617 t b b;
#X msg 387 644 1;
#X obj 234 203 sel 0;
#X obj 660 473 t f f;
#X obj 660 559 t f f;
#X obj 868 661 - 1;
#X obj 868 688 t f f;
#X obj 864 812 pack;
#X obj 864 785 i;
#X obj 1046 812 pack;
#X obj 1046 785 i;
#X obj 1050 678 t f f;
#X obj 951 647 t b b;
#X obj 980 559 t f f;
#X obj 319 68 inlet;
#X text 476 155 poorly implemented bubble sort;
#X obj 338 372 < \$1;
#X text 772 588 in-place swapping;
#X obj 346 95 r \$0.stop-outer;
#X obj 234 176 v \$0.swapped;
#X obj 358 203 v \$0.swapped;
#X obj 365 257 r \$0.stop-inner;
#X obj 234 230 s \$0.stop-outer;
#X obj 287 428 s \$0.stop-inner;
#X obj 424 644 s \$0.trig-swap;
#X obj 387 671 v \$0.swapped;
#X obj 575 785 tabread \$0.prob;
#X obj 603 913 s \$0.prob;
#X obj 757 785 tabread \$0.prob;
#X obj 631 620 r \$0.trig-swap;
#X obj 951 620 r \$0.trig-swap;
#X obj 895 785 tabread \$0.mapping;
#X obj 1077 785 tabread \$0.mapping;
#X obj 923 913 s \$0.mapping;
#X obj 387 536 tabread \$0.prob;
#X obj 420 510 tabread \$0.prob;
#X connect 0 0 6 0;
#X connect 1 0 6 1;
#X connect 2 0 40 0;
#X connect 2 1 5 1;
#X connect 3 0 0 0;
#X connect 3 1 7 0;
#X connect 4 0 47 0;
#X connect 4 1 5 0;
#X connect 5 0 10 0;
#X connect 6 0 1 0;
#X connect 6 0 2 0;
#X connect 7 0 6 1;
#X connect 8 0 22 0;
#X connect 9 0 44 0;
#X connect 10 0 19 0;
#X connect 10 1 27 0;
#X connect 11 0 12 0;
#X connect 12 0 16 1;
#X connect 12 1 50 0;
#X connect 13 0 51 0;
#X connect 14 0 13 0;
#X connect 15 0 51 0;
#X connect 16 0 15 0;
#X connect 17 0 14 1;
#X connect 17 1 52 0;
#X connect 18 0 14 0;
#X connect 18 1 16 0;
#X connect 19 0 20 0;
#X connect 19 1 59 0;
#X connect 20 0 58 0;
#X connect 21 0 23 0;
#X connect 22 0 43 0;
#X connect 22 1 3 0;
#X connect 22 2 9 0;
#X connect 23 0 24 0;
#X connect 24 0 25 0;
#X connect 24 1 48 0;
#X connect 25 0 49 0;
#X connect 26 0 46 0;
#X connect 27 0 28 0;
#X connect 27 1 37 0;
#X connect 28 0 11 0;
#X connect 28 1 17 0;
#X connect 29 0 30 0;
#X connect 30 0 34 1;
#X connect 30 1 55 0;
#X connect 31 0 57 0;
#X connect 32 0 31 0;
#X connect 33 0 57 0;
#X connect 34 0 33 0;
#X connect 35 0 32 1;
#X connect 35 1 56 0;
#X connect 36 0 32 0;
#X connect 36 1 34 0;
#X connect 37 0 29 0;
#X connect 37 1 35 0;
#X connect 38 0 8 0;
#X connect 40 0 4 0;
#X connect 42 0 8 1;
#X connect 43 0 26 0;
#X connect 45 0 0 1;
#X connect 50 0 13 1;
#X connect 52 0 15 1;
#X connect 53 0 18 0;
#X connect 54 0 36 0;
#X connect 55 0 31 1;
#X connect 56 0 33 1;
#X connect 58 0 21 0;
#X connect 59 0 21 1;
#X restore 188 365 pd sort;
#N canvas 0 50 1342 1033 init 0;
#X obj 216 220 until;
#X obj 248 247 + 1;
#X obj 216 247 i;
#X msg 260 220 0;
#X obj 216 394 t f f;
#X obj 216 126 inlet;
#X obj 216 180 i \$1;
#X obj 216 293 t f f;
#X obj 451 475 tabread;
#X obj 458 357 t f f;
#X msg 544 324 set \$1;
#X obj 216 153 t b b s;
#X text 214 443 identity function;
#X obj 451 508 tabwrite \$0.prob;
#X obj 216 421 tabwrite \$0.mapping;
#X text 538 418 copy external table to \$0.prob;
#X connect 0 0 2 0;
#X connect 1 0 2 1;
#X connect 2 0 1 0;
#X connect 2 0 7 0;
#X connect 3 0 2 1;
#X connect 4 0 14 0;
#X connect 4 1 14 1;
#X connect 5 0 11 0;
#X connect 6 0 0 0;
#X connect 7 0 4 0;
#X connect 7 1 9 0;
#X connect 8 0 13 0;
#X connect 9 0 8 0;
#X connect 9 1 13 1;
#X connect 10 0 8 0;
#X connect 11 0 6 0;
#X connect 11 1 3 0;
#X connect 11 2 10 0;
#X restore 206 338 pd init;
#N canvas 0 50 1342 1033 sum 0;
#X obj 228 299 until;
#X obj 260 325 + 1;
#X obj 228 326 i;
#X msg 272 299 0;
#X obj 324 477 +;
#X obj 361 480 f;
#X obj 370 452 t f f;
#X msg 359 407 0;
#X obj 225 368 t f f;
#X obj 227 504 pack;
#X obj 231 235 t f b b;
#X obj 232 169 inlet;
#X obj 233 201 i \$1;
#X obj 252 395 tabread \$0.prob;
#X obj 227 543 s \$0.prob;
#X connect 0 0 2 0;
#X connect 1 0 2 1;
#X connect 2 0 1 0;
#X connect 2 0 8 0;
#X connect 3 0 2 1;
#X connect 4 0 5 0;
#X connect 4 0 9 1;
#X connect 5 0 4 1;
#X connect 6 0 4 1;
#X connect 6 1 5 1;
#X connect 7 0 6 0;
#X connect 8 0 9 0;
#X connect 8 1 13 0;
#X connect 9 0 14 0;
#X connect 10 0 0 0;
#X connect 10 1 3 0;
#X connect 10 2 7 0;
#X connect 11 0 12 0;
#X connect 12 0 10 0;
#X connect 13 0 4 0;
#X restore 169 392 pd sum;
#X msg 151 419 normalize 1;
#N canvas 0 50 1342 1033 probtest 0;
#X obj 327 318 random 1e+09;
#X obj 327 352 / 1e+09;
#X obj 224 403 i;
#X msg 244 355 0;
#X obj 145 380 until;
#X obj 198 502 tabread \$0-prob;
#X obj 219 445 t f f;
#X obj 258 628 i;
#X obj 196 572 sel 1;
#X obj 198 599 t b b;
#X obj 258 659 tabread \$0-mapping;
#X obj 180 684 s \$0-stop-probtest;
#X obj 197 337 r \$0-stop-probtest;
#X obj 267 404 + 1;
#X obj 198 538 >=;
#X obj 307 713 outlet;
#X obj 210 259 inlet;
#X obj 141 345 i \$1;
#X obj 209 293 t b b b;
#X connect 0 0 1 0;
#X connect 1 0 14 1;
#X connect 2 0 6 0;
#X connect 2 0 13 0;
#X connect 3 0 2 1;
#X connect 4 0 2 0;
#X connect 5 0 14 0;
#X connect 6 0 5 0;
#X connect 6 1 7 1;
#X connect 7 0 10 0;
#X connect 8 0 9 0;
#X connect 9 0 11 0;
#X connect 9 1 7 0;
#X connect 10 0 15 0;
#X connect 12 0 4 1;
#X connect 13 0 2 1;
#X connect 14 0 8 0;
#X connect 16 0 18 0;
#X connect 17 0 4 0;
#X connect 18 0 17 0;
#X connect 18 1 3 0;
#X connect 18 2 0 0;
#X restore 54 227 pd probtest;
#X msg 225 284 const 0;
#X obj 151 257 t b b b s b;
#X obj 151 229 symbol;
#X obj 54 200 r \$0.bang;
#X obj 151 202 r \$0.array;
#X obj 54 254 s \$0.out;
#X obj 281 205 table \$0.prob \$1;
#X obj 280 232 table \$0.mapping \$1;
#X obj 225 311 s \$0.prob;
#X obj 151 446 s \$0.prob;
#X connect 0 0 1 0;
#X connect 2 0 3 0;
#X connect 5 0 4 0;
#X connect 9 0 20 0;
#X connect 10 0 16 0;
#X connect 11 0 19 0;
#X connect 12 0 9 0;
#X connect 12 1 8 0;
#X connect 12 2 6 0;
#X connect 12 3 7 0;
#X connect 12 4 11 0;
#X connect 13 0 12 0;
#X connect 14 0 10 0;
#X connect 15 0 13 0;
