#N canvas 1920 45 789 853 10;
#X obj 50 69 inlet~;
#X obj 50 96 s~ \$0.in;
#X obj 52 158 r~ \$0.out;
#X obj 52 185 outlet~;
#X obj 212 93 r~ \$0.in;
#X obj 212 120 *~ 2;
#X obj 212 174 s~ \$0.out;
#X obj 212 147 -~ 1;
#X connect 0 0 1 0;
#X connect 2 0 3 0;
#X connect 4 0 5 0;
#X connect 5 0 7 0;
#X connect 7 0 6 0;
