#N canvas 2711 45 647 853 10;
#X obj 38 32 cnv 15 480 48 empty empty mtob 10 22 0 32 -99865 -262144
0;
#X obj 38 91 cnv 15 480 400 empty empty about 10 22 0 32 -258958 -262144
0;
#X text 50 141 DESCRIPTION;
#X text 50 231 INLETS (Left to Right);
#X text 50 331 OUTLETS (Left to Right);
#X text 50 251 1st -> (f) Monopolar value;
#X text 50 351 1st -> (f) Bipolar value;
#X text 50 161 [mtob] converts a monopolar (0 to 1) value to a bipolar
(-1 to 1) value That's all.;
#X floatatom 376 261 5 0 100 0 - - -, f 5;
#X obj 376 280 / 100;
#X floatatom 376 302 5 0 0 0 - - -, f 5;
#X obj 376 321 mtob;
#X floatatom 376 343 5 0 0 0 - - -, f 5;
#X connect 8 0 9 0;
#X connect 9 0 10 0;
#X connect 10 0 11 0;
#X connect 11 0 12 0;
