#N canvas 2711 45 647 853 10;
#X obj 31 54 inlet;
#X obj 31 81 s \$0.in;
#X obj 29 202 r \$0.out;
#X obj 29 229 outlet;
#X obj 194 105 r \$0.in;
#X obj 194 132 * 2;
#X obj 194 159 - 1;
#X obj 194 186 s \$0.out;
#X text 29 33 Inlets;
#X text 30 181 Outlets;
#X connect 0 0 1 0;
#X connect 2 0 3 0;
#X connect 4 0 5 0;
#X connect 5 0 6 0;
#X connect 6 0 7 0;
