#N canvas 0 0 944 1003 10;
#X obj 38 502 cnv 15 480 120 empty empty inlets 10 22 0 32 -258958
-262144 0;
#X obj 38 633 cnv 15 480 120 empty empty outlets 10 22 0 32 -258958
-262144 0;
#X obj 38 32 cnv 15 480 48 empty empty mtob 10 22 0 32 -99865 -262144
0;
#X obj 38 91 cnv 15 480 400 empty empty about 10 22 0 32 -258958 -262144
0;
#X text 50 141 DESCRIPTION;
#X text 50 231 INLETS (Left to Right);
#X obj 38 764 cnv 15 480 90 empty empty patch 10 22 0 32 -258958 -262144
0;
#X text 50 331 OUTLETS (Left to Right);
#X text 50 251 1st -> (f) Monopolar value;
#X text 50 351 1st -> (f) Bipolar value;
#X obj 48 552 inlet;
#X obj 48 579 s \$0.in;
#X obj 48 683 r \$0.out;
#X obj 48 710 outlet;
#N canvas 912 124 399 324 mtob 0;
#X obj 58 97 r \$0.in;
#X obj 58 124 * 2;
#X obj 58 151 - 1;
#X obj 58 178 s \$0.out;
#X connect 0 0 1 0;
#X connect 1 0 2 0;
#X connect 2 0 3 0;
#X restore 49 814 pd mtob;
#X text 50 161 [mtob] converts a monopolar (0 to 1) value to a bipolar
(-1 to 1) value That's all.;
#X connect 10 0 11 0;
#X connect 12 0 13 0;
