#N canvas 1920 45 861 853 10;
#X obj 38 47 inlet;
#X obj 132 47 inlet;
#X obj 42 146 r \$0.out;
#X obj 42 173 outlet;
#X obj 38 74 s \$0.value;
#X obj 132 74 s \$0.octave;
#X obj 159 307 *;
#X obj 186 226 f \$1;
#X obj 186 280 pow;
#X msg 186 253 2 \$1;
#X obj 159 172 unpack;
#X obj 159 199 t f b;
#X obj 159 145 r \$0.value;
#X obj 217 199 r \$0.octave;
#X obj 159 334 s \$0.out;
#X connect 0 0 4 0;
#X connect 1 0 5 0;
#X connect 2 0 3 0;
#X connect 6 0 14 0;
#X connect 7 0 9 0;
#X connect 8 0 6 1;
#X connect 9 0 8 0;
#X connect 10 0 11 0;
#X connect 10 1 7 1;
#X connect 11 0 6 0;
#X connect 11 1 7 0;
#X connect 12 0 10 0;
#X connect 13 0 7 1;
