#N canvas 0 50 944 981 10;
#X obj 38 502 cnv 15 480 120 empty empty inlets 10 22 0 32 -258958
-262144 0;
#X obj 38 633 cnv 15 480 120 empty empty outlets 10 22 0 32 -258958
-262144 0;
#X obj 38 32 cnv 15 480 48 empty empty octave~ 10 22 0 32 -99865 -262144
0;
#X obj 38 91 cnv 15 480 400 empty empty about 10 22 0 32 -258958 -262144
0;
#X text 50 161 DESCRIPTION;
#X text 50 251 INLETS (Left to Right);
#X obj 38 764 cnv 15 480 90 empty empty patch 10 22 0 32 -258958 -262144
0;
#X text 50 331 OUTLETS (Left to Right);
#N canvas 1153 205 399 324 octave~ 0;
#X obj 99 97 sig~ 2;
#X obj 99 119 pow~;
#X obj 84 147 *~;
#X obj 84 70 r~ \$0.value;
#X obj 148 103 r~ \$0.octave;
#X obj 84 174 s~ \$0.out;
#X connect 0 0 1 0;
#X connect 1 0 2 1;
#X connect 2 0 5 0;
#X connect 3 0 2 0;
#X connect 4 0 1 1;
#X restore 49 814 pd octave~;
#X obj 48 552 inlet~;
#X obj 48 579 s~ \$0.value;
#X obj 122 552 inlet~;
#X obj 48 682 r~ \$0.out;
#X obj 48 710 outlet~;
#X text 50 271 1st -> (~) Value;
#X text 50 281 2nd -> (~) Octave;
#X text 50 350 1st -> (~) Transposed value;
#X text 50 181 [octave~] is an audio-rate octave transposer for frequency
signals. Given a signal (s) and an octave (n) [octave~] returns s*(2^n).
[octave~] also works with non-integer and negative signals.;
#X obj 122 579 s~ \$0.octave;
#X connect 9 0 10 0;
#X connect 11 0 18 0;
#X connect 12 0 13 0;
