#N canvas 1920 45 861 853 10;
#X obj 42 54 inlet~;
#X obj 42 81 s~ \$0.value;
#X obj 136 54 inlet~;
#X obj 42 144 r~ \$0.out;
#X obj 42 172 outlet~;
#X obj 136 81 s~ \$0.octave;
#X obj 264 113 sig~ 2;
#X obj 264 135 pow~;
#X obj 246 163 *~;
#X obj 246 86 r~ \$0.value;
#X obj 313 119 r~ \$0.octave;
#X obj 246 190 s~ \$0.out;
#X connect 0 0 1 0;
#X connect 2 0 5 0;
#X connect 3 0 4 0;
#X connect 6 0 7 0;
#X connect 7 0 8 1;
#X connect 8 0 11 0;
#X connect 9 0 8 0;
#X connect 10 0 7 1;
