#N canvas 568 88 944 981 10;
#X obj 38 502 cnv 15 480 120 empty empty inlets 10 22 0 32 -258958
-262144 0;
#X obj 38 633 cnv 15 480 120 empty empty outlets 10 22 0 32 -258958
-262144 0;
#X obj 38 32 cnv 15 480 48 empty empty octave 10 22 0 32 -99865 -262144
0;
#X obj 38 91 cnv 15 480 400 empty empty about 10 22 0 32 -258958 -262144
0;
#X text 50 161 DESCRIPTION;
#X text 50 251 INLETS (Left to Right);
#X obj 38 764 cnv 15 480 90 empty empty patch 10 22 0 32 -258958 -262144
0;
#X text 50 321 ARGUMENTS;
#X text 50 381 OUTLETS (Left to Right);
#N canvas 1153 205 399 324 octave 0;
#X obj 84 216 *;
#X obj 111 135 f \$1;
#X obj 111 189 pow;
#X msg 111 162 2 \$1;
#X obj 84 81 unpack;
#X obj 84 108 t f b;
#X obj 84 54 r \$0.value;
#X obj 142 108 r \$0.octave;
#X obj 84 243 s \$0.out;
#X connect 0 0 8 0;
#X connect 1 0 3 0;
#X connect 2 0 0 1;
#X connect 3 0 2 0;
#X connect 4 0 5 0;
#X connect 4 1 1 1;
#X connect 5 0 0 0;
#X connect 5 1 1 0;
#X connect 6 0 4 0;
#X connect 7 0 1 1;
#X restore 49 814 pd octave;
#X obj 48 552 inlet;
#X obj 122 552 inlet;
#X obj 48 683 r \$0.out;
#X obj 48 710 outlet;
#X obj 48 579 s \$0.value;
#X text 50 400 1st -> (f) Transposed value;
#X text 50 341 \$1 -> (f) Octave;
#X text 50 271 1st -> (f) Value;
#X text 50 281 2nd -> (f) Octave;
#X text 50 181 [octave] is an octave transposer for frequency values.
Given a value (v) and an octave (n) [octave] returns v*(2^n). [octave]
also works with non-integer and negative values.;
#X obj 122 579 s \$0.octave;
#X connect 10 0 14 0;
#X connect 11 0 20 0;
#X connect 12 0 13 0;
