#N canvas 2783 45 575 853 10;
#X obj 39 54 inlet;
#X obj 39 81 s \$0.switch;
#X obj 129 54 inlet;
#X obj 129 81 s \$0.rate;
#X obj 45 132 r \$0.bang;
#X obj 45 159 outlet;
#X obj 192 172 metro 1;
#X obj 192 199 random 1e+09;
#X obj 192 226 / 1e+09;
#X obj 192 253 * 1000;
#X obj 192 280 < \$1;
#X obj 192 307 sel 1;
#X obj 242 263 r \$0.rate;
#X obj 192 145 r \$0.switch;
#X obj 192 334 s \$0.bang;
#X connect 0 0 1 0;
#X connect 2 0 3 0;
#X connect 4 0 5 0;
#X connect 6 0 7 0;
#X connect 7 0 8 0;
#X connect 8 0 9 0;
#X connect 9 0 10 0;
#X connect 10 0 11 0;
#X connect 11 0 14 0;
#X connect 12 0 10 1;
#X connect 13 0 6 0;
