#N canvas 0 50 944 981 10;
#X obj 38 502 cnv 15 480 120 empty empty inlets 10 22 0 32 -258958
-262144 0;
#X obj 38 633 cnv 15 480 120 empty empty outlets 10 22 0 32 -258958
-262144 0;
#X obj 38 32 cnv 15 480 48 empty empty pmetro 10 22 0 32 -99865 -262144
0;
#X obj 38 91 cnv 15 480 400 empty empty about 10 22 0 32 -258958 -262144
0;
#X text 50 141 DESCRIPTION;
#X text 50 241 INLETS (Left to Right);
#X text 50 321 ARGUMENTS;
#X obj 38 764 cnv 15 480 90 empty empty patch 10 22 0 32 -258958 -262144
0;
#X obj 48 552 inlet;
#X obj 48 579 s \$0.switch;
#X obj 128 552 inlet;
#X obj 128 579 s \$0.rate;
#X obj 48 683 r \$0.bang;
#X obj 48 710 outlet;
#N canvas 0 50 645 462 pmetro 0;
#X obj 61 124 metro 1;
#X obj 61 151 random 1e+009;
#X obj 61 178 / 1e+009;
#X obj 61 205 * 1000;
#X obj 61 232 < \$1;
#X obj 61 259 sel 1;
#X obj 111 215 r \$0.rate;
#X obj 61 97 r \$0.switch;
#X obj 61 286 s \$0.bang;
#X connect 0 0 1 0;
#X connect 1 0 2 0;
#X connect 2 0 3 0;
#X connect 3 0 4 0;
#X connect 4 0 5 0;
#X connect 5 0 8 0;
#X connect 6 0 4 1;
#X connect 7 0 0 0;
#X restore 49 814 pd pmetro;
#X text 50 371 OUTLETS;
#X text 50 391 1st -> (b) Bangs!;
#X text 50 161 [pmetro] is a probabalistic metro. It outputs bangs
at an approximate rate.;
#X text 50 261 1st -> (f) n > 0 activates \, 0 deactivates metro;
#X text 50 271 2nd -> (f) Approximate rate in bangs/second;
#X text 50 341 \$1 -> (f) Approximate rate in bangs/second;
#X connect 8 0 9 0;
#X connect 10 0 11 0;
#X connect 12 0 13 0;
