#N canvas 1920 45 861 853 10;
#X obj 38 32 cnv 15 480 48 empty empty pmetro 10 22 0 32 -99865 -262144
0;
#X obj 38 91 cnv 15 480 400 empty empty about 10 22 0 32 -258958 -262144
0;
#X text 50 141 DESCRIPTION;
#X text 50 271 INLETS (Left to Right);
#X text 50 221 ARGUMENTS;
#X text 50 331 OUTLETS;
#X text 50 351 1st -> (b) Bangs!;
#X text 50 291 1st -> (f) n > 0 activates \, 0 deactivates metro;
#X obj 371 330 tgl 15 0 empty empty on/off 17 7 0 10 -262144 -1 -1
1 1;
#X obj 371 387 bng 30 50 50 0 empty empty empty 17 7 0 10 -262144 -1
-1;
#X obj 434 284 vsl 15 48 0 15 0 0 empty empty Rate 0 -9 0 10 -262144
-1 -1 3400 1;
#X floatatom 434 340 5 0 0 0 - - -, f 5;
#X text 50 241 \$1 -> (f) Average rate in bangs/second;
#X text 50 161 [pmetro] is a probabalistic metro. It outputs bangs
at an average rate.;
#X text 50 301 2nd -> (f) Average rate in bangs/second;
#X obj 371 360 pmetro 2;
#X connect 8 0 15 0;
#X connect 10 0 11 0;
#X connect 11 0 15 1;
#X connect 15 0 9 0;
