#N canvas 1920 45 861 853 10;
#X obj 54 81 inlet;
#X obj 54 108 s \$0.in.0;
#X obj 128 81 inlet;
#X obj 128 108 s \$0.in.1;
#X obj 61 139 r \$0.out;
#X obj 61 166 outlet;
#X obj 256 84 random 1e+09;
#X obj 256 111 / 1e+09;
#X obj 256 57 r \$0.in.0;
#X obj 291 137 r \$0.in.1;
#X obj 256 164 < \$1;
#X obj 256 191 s \$0.out;
#X connect 0 0 1 0;
#X connect 2 0 3 0;
#X connect 4 0 5 0;
#X connect 6 0 7 0;
#X connect 7 0 10 0;
#X connect 8 0 6 0;
#X connect 9 0 10 1;
#X connect 10 0 11 0;
