#N canvas 1920 45 861 853 10;
#X obj 42 51 inlet;
#X obj 39 149 outlet;
#X obj 39 121 r \$0.out;
#X obj 42 78 s \$0.trigger;
#X obj 192 104 random 1e+09;
#X obj 192 131 / 1e+09;
#X obj 192 77 r \$0.trigger;
#X obj 192 158 s \$0.out;
#X connect 0 0 3 0;
#X connect 2 0 1 0;
#X connect 4 0 5 0;
#X connect 5 0 7 0;
#X connect 6 0 4 0;
