#N canvas 0 45 1534 1033 10;
#X obj 38 502 cnv 15 480 120 empty empty inlets 10 22 0 32 -258958
-262144 0;
#X obj 38 633 cnv 15 480 120 empty empty outlets 10 22 0 32 -258958
-262144 0;
#X obj 38 32 cnv 15 480 48 empty empty rnd2 10 22 0 32 -99865 -262144
0;
#X obj 48 552 inlet;
#X obj 48 711 outlet;
#X obj 48 683 r \$0.out;
#X obj 38 91 cnv 15 480 400 empty empty about 10 22 0 32 -258958 -262144
0;
#X text 50 141 DESCRIPTION;
#X text 49 204 INLETS (Left to Right);
#X obj 38 764 cnv 15 480 90 empty empty patch 10 22 0 32 -258958 -262144
0;
#X obj 48 579 s \$0.trigger;
#N canvas 0 45 1534 1033 rnd2 0;
#X obj 82 97 random 1e+09;
#X obj 82 124 / 1e+09;
#X obj 174 87 random 2;
#X obj 174 114 sel 0 1;
#X msg 174 141 1;
#X msg 203 161 -1;
#X obj 82 178 *;
#X obj 82 43 r \$0.trigger;
#X obj 82 205 s \$0.out;
#X obj 82 70 t a a;
#X connect 0 0 1 0;
#X connect 1 0 6 0;
#X connect 2 0 3 0;
#X connect 3 0 4 0;
#X connect 3 1 5 0;
#X connect 4 0 6 1;
#X connect 5 0 6 1;
#X connect 6 0 8 0;
#X connect 7 0 9 0;
#X connect 9 0 0 0;
#X connect 9 1 2 0;
#X restore 49 814 pd rnd2;
#X text 49 264 OUTLETS;
#X text 50 161 [rnd2] g=Generates a random number between -1 and 1
;
#X text 49 284 \$1 -> (f) Random number;
#X text 49 224 1st -> (b) Trigger this thing;
#X connect 3 0 10 0;
#X connect 5 0 4 0;
