#N canvas 1920 45 861 853 10;
#X obj 41 51 inlet;
#X obj 40 156 outlet;
#X obj 40 128 r \$0.out;
#X obj 41 78 s \$0.trigger;
#X obj 170 103 random 1e+09;
#X obj 170 130 / 1e+09;
#X obj 262 93 random 2;
#X obj 262 120 sel 0 1;
#X msg 262 147 1;
#X msg 291 167 -1;
#X obj 170 184 *;
#X obj 170 49 r \$0.trigger;
#X obj 170 211 s \$0.out;
#X obj 170 76 t a a;
#X connect 0 0 3 0;
#X connect 2 0 1 0;
#X connect 4 0 5 0;
#X connect 5 0 10 0;
#X connect 6 0 7 0;
#X connect 7 0 8 0;
#X connect 7 1 9 0;
#X connect 8 0 10 1;
#X connect 9 0 10 1;
#X connect 10 0 12 0;
#X connect 11 0 13 0;
#X connect 13 0 4 0;
#X connect 13 1 6 0;
