#N canvas 1920 45 1438 853 10;
#X obj 38 32 cnv 15 480 48 empty empty rnd2 10 22 0 32 -99865 -262144
0;
#X obj 38 91 cnv 15 480 400 empty empty about 10 22 0 32 -258958 -262144
0;
#X text 50 141 DESCRIPTION;
#X text 49 204 INLETS (Left to Right);
#X text 49 264 OUTLETS;
#X text 49 284 \$1 -> (f) Random number;
#X text 49 224 1st -> (b) Trigger this thing;
#X text 50 161 [rnd2] Generates a random number between -1 and 1;
#X obj 305 247 bng 15 250 50 0 empty empty empty 17 7 0 10 -262144
-1 -1;
#X obj 305 267 rnd2;
#X floatatom 305 289 5 0 0 0 - - -, f 5;
#X connect 8 0 9 0;
#X connect 9 0 10 0;
