#N canvas 0 0 944 982 10;
#X obj 38 502 cnv 15 480 120 empty empty inlets 10 22 0 32 -258958
-262144 0;
#X obj 38 633 cnv 15 480 120 empty empty outlets 10 22 0 32 -258958
-262144 0;
#X obj 38 32 cnv 15 480 48 empty empty sandScope~ 10 22 0 32 -99865
-262144 0;
#X obj 38 91 cnv 15 480 400 empty empty about 10 22 0 32 -258958 -262144
0;
#X text 50 161 DESCRIPTION;
#X text 50 241 INLETS (Left to Right);
#X obj 38 764 cnv 15 480 180 empty empty patch 10 22 0 32 -258958 -262144
0;
#X text 50 341 ARGUMENTS;
#X obj 48 552 inlet~;
#X obj 208 552 inlet;
#N canvas 1344 45 574 323 patch 0;
#X obj 145 443 tabwrite~ \$0.scope;
#X obj 269 406 s \$0.scope;
#X obj 219 362 t f f;
#X msg 269 379 resize \$1;
#X obj 229 308 loadbang;
#N canvas 0 50 1920 997 (subpatch) 0;
#X array \$0.scope 1 float 0;
#X coords 0 1 1 -1 128 64 2 0 0;
#X restore 100 135 graph;
#X obj 59 406 clip~ -1 1;
#X obj 219 335 i \$1;
#X obj 219 389 / 44.1;
#X obj 145 406 metro;
#X obj 59 379 *~ 0.95;
#X obj 100 118 cnv 15 128 16 empty empty SAND-O-VISION 5 10 0 14 -1
-262144 0;
#X obj 145 379 t f b;
#X obj 59 352 r~ \$0.signal;
#X obj 145 352 r \$0.graph;
#X obj 219 281 r \$0.size;
#X connect 2 0 8 0;
#X connect 2 1 3 0;
#X connect 3 0 1 0;
#X connect 4 0 7 0;
#X connect 6 0 0 0;
#X connect 7 0 2 0;
#X connect 8 0 9 1;
#X connect 9 0 0 0;
#X connect 10 0 6 0;
#X connect 12 0 9 0;
#X connect 12 1 0 0;
#X connect 13 0 10 0;
#X connect 14 0 12 0;
#X connect 15 0 7 0;
#X coords 0 -1 1 1 128 99 2 100 100;
#X restore 49 814 pd patch;
#X obj 48 579 s~ \$0.signal;
#X obj 134 579 s \$0.graph;
#X obj 134 552 inlet;
#X obj 208 579 s \$0.size;
#X text 50 261 1st -> (~) Signal;
#X text 50 271 2nd -> (i) = 1 start graphing;
#X text 50 281 " " -> (i) = 0 stop graphing;
#X text 50 291 " " -> (b) graph once;
#X text 50 181 [scope~] is a handy tool for visualizing the time-domain
data of an audio signal.;
#X text 50 301 3rd -> (i) Window size in samples;
#X text 50 361 \$1 -> (i) Window size in samples;
#X connect 8 0 11 0;
#X connect 9 0 14 0;
#X connect 13 0 12 0;
#X coords 0 -1 1 1 128 99 1 49 814;
