#N canvas 1920 45 861 853 10;
#X obj 37 37 table \$1;
#X obj 32 94 loadbang;
#X obj 32 175 s \$1;
#X obj 32 121 i \$2;
#X msg 32 148 sinesum \$1 1;
#X connect 1 0 3 0;
#X connect 3 0 4 0;
#X connect 4 0 2 0;
