#N canvas 1920 45 861 853 10;
#X obj 40 34 inlet~;
#X obj 124 34 inlet~;
#X obj 214 34 inlet;
#X obj 214 61 s \$0.phase;
#X obj 124 61 s~ \$0.width;
#X obj 40 61 s~ \$0.freq;
#X obj 40 132 outlet~;
#X obj 40 105 r~ \$0.out;
#X obj 157 258 min~ 1;
#X obj 157 285 wrap~;
#X obj 157 339 wrap~;
#X obj 157 366 cos~;
#X obj 157 393 *~ 1e+09;
#X obj 157 420 clip~ -1 1;
#X obj 157 204 phasor~;
#X obj 157 231 *~;
#X obj 157 150 r~ \$0.freq;
#X obj 203 177 r \$0.phase;
#X obj 157 447 s~ \$0.out;
#X obj 289 159 r~ \$0.width;
#X obj 290 188 +~ 1;
#X obj 290 215 max~ 1;
#X obj 157 312 +~ 0.5;
#X connect 0 0 5 0;
#X connect 1 0 4 0;
#X connect 2 0 3 0;
#X connect 7 0 6 0;
#X connect 8 0 9 0;
#X connect 9 0 22 0;
#X connect 10 0 11 0;
#X connect 11 0 12 0;
#X connect 12 0 13 0;
#X connect 13 0 18 0;
#X connect 14 0 15 0;
#X connect 15 0 8 0;
#X connect 16 0 14 0;
#X connect 17 0 14 1;
#X connect 19 0 20 0;
#X connect 20 0 21 0;
#X connect 21 0 15 1;
#X connect 22 0 10 0;
