#N canvas 0 0 944 981 10;
#X obj 38 502 cnv 15 480 120 empty empty inlets 10 22 0 32 -258958
-262144 0;
#X obj 38 633 cnv 15 480 120 empty empty outlets 10 22 0 32 -258958
-262144 0;
#X obj 38 32 cnv 15 480 48 empty empty sqrOsc~ 10 22 0 32 -99865 -262144
0;
#X obj 38 91 cnv 15 480 400 empty empty about 10 22 0 32 -258958 -262144
0;
#X text 50 141 DESCRIPTION;
#X text 50 311 INLETS (Left to Right);
#X obj 38 764 cnv 15 480 90 empty empty patch 10 22 0 32 -258958 -262144
0;
#X text 50 391 OUTLETS (Left to Right);
#X obj 48 552 inlet~;
#X obj 122 552 inlet~;
#X obj 202 552 inlet;
#X obj 202 579 s \$0.phase;
#X obj 122 579 s~ \$0.width;
#X obj 48 579 s~ \$0.freq;
#X text 50 351 3rd -> (f) Set phase of oscillator;
#X text 50 341 2nd -> (~) "Width" of duty cycle;
#X text 50 331 1st -> (~) Frequency;
#X text 50 211 DUTY CYCLE INFO;
#N canvas 0 50 404 521 sqrOsc~ 0;
#X obj 78 174 min~ 1;
#X obj 78 201 wrap~;
#X obj 78 255 wrap~;
#X obj 78 282 cos~;
#X obj 78 309 *~ 1e+009;
#X obj 78 336 clip~ -1 1;
#X obj 78 120 phasor~;
#X obj 78 147 *~;
#X obj 78 66 r~ \$0.freq;
#X obj 117 93 r \$0.phase;
#X obj 78 363 s~ \$0.out;
#X obj 190 75 r~ \$0.width;
#X obj 191 104 +~ 1;
#X obj 191 131 max~ 1;
#X obj 78 228 +~ 0.5;
#X connect 0 0 1 0;
#X connect 1 0 14 0;
#X connect 2 0 3 0;
#X connect 3 0 4 0;
#X connect 4 0 5 0;
#X connect 5 0 10 0;
#X connect 6 0 7 0;
#X connect 7 0 0 0;
#X connect 8 0 6 0;
#X connect 9 0 6 1;
#X connect 11 0 12 0;
#X connect 12 0 13 0;
#X connect 13 0 7 1;
#X connect 14 0 2 0;
#X restore 49 814 pd sqrOsc~;
#X text 50 411 1st -> (~) Square oscillator tone;
#X text 50 231 The duty cycle control is implemented in a non-standard
manner. It is inversely proportional to a "width" variable. A larger
"width" results in a shorter duty cycle. In the case of the square/pulse
oscillator 0 "width" gives you a 50% duty cycle square wave.;
#X text 50 161 [sqrOsc~] is a band-unlimited square/pulse oscillator
with a variable duty cycle control for added fun.;
#X obj 48 710 outlet~;
#X obj 48 683 r~ \$0.out;
#X connect 8 0 13 0;
#X connect 9 0 12 0;
#X connect 10 0 11 0;
#X connect 23 0 22 0;
