#N canvas 1920 45 861 853 10;
#X obj 170 316 list prepend;
#X obj 256 316 t l;
#X obj 59 333 list;
#X obj 59 29 loadbang;
#X obj 170 100 until;
#X obj 59 387 t b a;
#X obj 59 360 list trim;
#X msg 59 414 normalize 1;
#X obj 202 127 + 1;
#X obj 170 289 /;
#X msg 170 262 1 \$1;
#X obj 59 83 t b f;
#X obj 121 29 table \$1;
#X obj 59 441 s \$1;
#X obj 170 181 mod 2;
#X obj 170 154 t f f;
#X obj 170 208 sel 1 0;
#X msg 202 235 0;
#X obj 170 127 i 1;
#X obj 170 235 i;
#X obj 59 56 i \$3;
#X obj 59 110 i \$2;
#X msg 59 306 sinesum \$1;
#X connect 0 0 1 0;
#X connect 0 0 2 1;
#X connect 1 0 0 1;
#X connect 2 0 6 0;
#X connect 3 0 20 0;
#X connect 4 0 18 0;
#X connect 5 0 7 0;
#X connect 5 1 13 0;
#X connect 6 0 5 0;
#X connect 7 0 13 0;
#X connect 8 0 18 1;
#X connect 9 0 0 0;
#X connect 10 0 9 0;
#X connect 11 0 21 0;
#X connect 11 1 4 0;
#X connect 14 0 16 0;
#X connect 15 0 14 0;
#X connect 15 1 19 1;
#X connect 16 0 19 0;
#X connect 16 1 17 0;
#X connect 17 0 0 0;
#X connect 18 0 8 0;
#X connect 18 0 15 0;
#X connect 19 0 10 0;
#X connect 20 0 11 0;
#X connect 21 0 22 0;
#X connect 22 0 2 0;
