#N canvas 1920 45 861 853 10;
#X obj 39 102 r~ \$0.out;
#X obj 39 129 outlet~;
#X obj 40 34 inlet~;
#X obj 40 61 s~ \$0.in.0;
#X obj 124 34 inlet;
#X obj 124 61 s \$0.in.1;
#X obj 160 215 -~;
#X obj 160 188 sig~ 1;
#X obj 191 161 wrap~;
#X obj 350 161 +~ 1;
#X obj 192 243 *~;
#X obj 160 243 *~;
#X obj 160 271 +~;
#X obj 246 188 tabread~ \$1;
#X obj 350 188 tabread~ \$1;
#X obj 191 134 +~ 1;
#X obj 245 63 r~ \$0.in.0;
#X obj 319 63 r \$0.in.1;
#X obj 160 298 s~ \$0.out;
#X connect 0 0 1 0;
#X connect 2 0 3 0;
#X connect 4 0 5 0;
#X connect 6 0 11 0;
#X connect 7 0 6 0;
#X connect 8 0 6 1;
#X connect 8 0 10 0;
#X connect 9 0 14 0;
#X connect 10 0 12 0;
#X connect 11 0 12 0;
#X connect 12 0 18 0;
#X connect 13 0 11 1;
#X connect 14 0 10 1;
#X connect 15 0 8 0;
#X connect 16 0 9 0;
#X connect 16 0 13 0;
#X connect 16 0 15 0;
#X connect 17 0 13 0;
#X connect 17 0 14 0;
