#N canvas 0 45 1246 1033 10;
#X obj 38 502 cnv 15 480 120 empty empty inlets 10 22 0 32 -258958
-262144 0;
#X obj 38 633 cnv 15 480 120 empty empty outlets 10 22 0 32 -258958
-262144 0;
#X obj 38 32 cnv 15 480 48 empty empty tabread2~ 10 22 0 32 -99865
-262144 0;
#X obj 38 91 cnv 15 480 400 empty empty about 10 22 0 32 -258958 -262144
0;
#X text 50 141 DESCRIPTION;
#X text 50 251 INLETS (Left to Right);
#X obj 38 764 cnv 15 480 90 empty empty patch 10 22 0 32 -258958 -262144
0;
#X text 50 331 ARGUMENTS;
#X obj 48 683 r~ \$0.out;
#X obj 48 710 outlet~;
#X text 50 401 OUTLETS (Left to Right);
#X obj 48 552 inlet~;
#X obj 48 579 s~ \$0.in.0;
#N canvas 439 380 530 522 tabread2~ 0;
#X obj 74 225 -~;
#X obj 74 198 sig~ 1;
#X obj 105 171 wrap~;
#X obj 264 171 +~ 1;
#X obj 106 253 *~;
#X obj 74 253 *~;
#X obj 74 281 +~;
#X obj 160 198 tabread~ \$1;
#X obj 264 198 tabread~ \$1;
#X obj 105 144 +~ 1;
#X obj 159 73 r~ \$0.in.0;
#X obj 233 73 r \$0.in.1;
#X obj 74 308 s~ \$0.out;
#X connect 0 0 5 0;
#X connect 1 0 0 0;
#X connect 2 0 0 1;
#X connect 2 0 4 0;
#X connect 3 0 8 0;
#X connect 4 0 6 0;
#X connect 5 0 6 0;
#X connect 6 0 12 0;
#X connect 7 0 5 1;
#X connect 8 0 4 1;
#X connect 9 0 2 0;
#X connect 10 0 3 0;
#X connect 10 0 7 0;
#X connect 10 0 9 0;
#X connect 11 0 7 0;
#X connect 11 0 8 0;
#X restore 49 814 pd tabread2~;
#X text 50 161 [tabread2~] is a 2 point interpolating table lookup.
With [tabread2~] you don't need to worry about all those weird guard
points messing up your beginning and ending values like with [tabread4~].
This object is more for reading control data than audio data.;
#X text 50 271 1st -> (~) Lookup index;
#X text 50 281 2nd -> (m) Set table command;
#X text 50 351 \$1 -> (s) Name of table;
#X text 50 421 1st -> (~) Interpolated table value;
#X obj 122 552 inlet;
#X obj 122 579 s \$0.in.1;
#X connect 8 0 9 0;
#X connect 11 0 12 0;
#X connect 19 0 20 0;
