#N canvas 1248 45 670 181 10;
#X obj 38 502 cnv 15 480 120 empty empty inlets 10 22 0 32 -258958
-262144 0;
#X obj 38 633 cnv 15 480 120 empty empty outlets 10 22 0 32 -258958
-262144 0;
#X obj 38 32 cnv 15 480 48 empty empty object_name 10 22 0 32 -99865
-262144 0;
#X obj 38 91 cnv 15 480 400 empty empty about 10 22 0 32 -258958 -262144
0;
#X text 50 141 DESCRIPTION;
#X text 50 231 INLETS (Left to Right);
#X obj 38 764 cnv 15 480 90 empty empty patch 10 22 0 32 -258958 -262144
0;
#X text 50 161 Description of [object]'s function.;
#X text 50 181 OPTIONAL EXTRA STUFF;
#X text 50 251 1st -> (f) Float;
#X text 50 331 ARGUMENTS;
#X text 50 351 \$1 -> (f) Float;
#X text 50 371 \$3 -> (s) Symbol;
#X text 50 201 Input range \, warnings \, anything else \, etc...;
#N canvas 0 45 1246 1033 sawTab 1;
#X obj 74 225 -~;
#X obj 74 198 sig~ 1;
#X obj 105 171 wrap~;
#X obj 240 171 +~ 1;
#X obj 106 253 *~;
#X obj 74 253 *~;
#X obj 74 281 +~;
#X obj 159 73 inlet~;
#X obj 209 73 inlet;
#X obj 74 308 outlet~;
#X obj 160 198 tabread~ \$1;
#X obj 240 198 tabread~ \$1;
#X obj 105 144 +~ 1;
#X connect 0 0 5 0;
#X connect 1 0 0 0;
#X connect 2 0 0 1;
#X connect 2 0 4 0;
#X connect 3 0 11 0;
#X connect 4 0 6 0;
#X connect 5 0 6 0;
#X connect 6 0 9 0;
#X connect 7 0 3 0;
#X connect 7 0 10 0;
#X connect 7 0 12 0;
#X connect 8 0 10 0;
#X connect 8 0 11 0;
#X connect 10 0 5 1;
#X connect 11 0 4 1;
#X connect 12 0 2 0;
#X restore 49 814 pd sawTab;
#X obj 48 683 r~ \$0.out;
#X obj 48 710 outlet~;
#X text 50 261 2nd -> (i) Integer;
#X text 50 361 \$2 -> (i) Integer;
#X text 50 271 3rd -> (b) Bang;
#X text 50 281 4th -> (s) Symbol;
#X text 50 291 5th -> (l) List;
#X text 50 301 6th -> (~) Audio;
#X text 50 421 1st -> (f) Float;
#X text 50 431 2nd -> (i) Integer;
#X text 50 441 3rd -> (b) Bang;
#X text 50 451 4th -> (s) Symbol;
#X text 50 461 5th -> (l) List;
#X text 50 471 6th -> (~) Audio;
#X text 50 401 OUTLETS (Left to Right);
#X obj 48 552 inlet~;
#X obj 122 552 inlet~;
#X obj 48 579 s~ \$0.in.0;
#X obj 122 579 s~ \$0.in.1;
#X obj 196 552 inlet;
#X obj 196 579 s \$0.channel;
#X connect 15 0 16 0;
#X connect 30 0 32 0;
#X connect 31 0 33 0;
#X connect 34 0 35 0;
