#N canvas 1920 45 861 853 10;
#X obj 52 56 inlet~;
#X obj 136 56 inlet~;
#X obj 226 56 inlet;
#X obj 226 83 s \$0.phase;
#X obj 136 83 s~ \$0.width;
#X obj 52 83 s~ \$0.freq;
#X obj 52 143 r~ \$0.out;
#X obj 52 170 outlet~;
#X obj 180 147 r~ \$0.freq;
#X obj 226 174 r \$0.phase;
#X obj 180 498 s~ \$0.out;
#X obj 180 255 min~ 1;
#X obj 180 282 wrap~;
#X obj 180 336 wrap~;
#X obj 180 363 *~ 2;
#X obj 180 390 -~ 1;
#X obj 180 417 abs~;
#X obj 180 444 *~ 2;
#X obj 180 471 -~ 1;
#X obj 180 309 -~ 0.25;
#X obj 180 201 phasor~;
#X obj 180 228 *~;
#X obj 319 156 r~ \$0.width;
#X obj 320 185 +~ 1;
#X obj 320 212 max~ 1;
#X connect 0 0 5 0;
#X connect 1 0 4 0;
#X connect 2 0 3 0;
#X connect 6 0 7 0;
#X connect 8 0 20 0;
#X connect 9 0 20 1;
#X connect 11 0 12 0;
#X connect 12 0 19 0;
#X connect 13 0 14 0;
#X connect 14 0 15 0;
#X connect 15 0 16 0;
#X connect 16 0 17 0;
#X connect 17 0 18 0;
#X connect 18 0 10 0;
#X connect 19 0 13 0;
#X connect 20 0 21 0;
#X connect 21 0 11 0;
#X connect 22 0 23 0;
#X connect 23 0 24 0;
#X connect 24 0 21 1;
