#N canvas 0 50 944 1101 10;
#X obj 38 502 cnv 15 480 120 empty empty inlets 10 22 0 32 -258958
-262144 0;
#X obj 38 633 cnv 15 480 120 empty empty outlets 10 22 0 32 -258958
-262144 0;
#X obj 38 32 cnv 15 480 48 empty empty 4osc~ 10 22 0 32 -99865 -262144
0;
#X obj 38 91 cnv 15 480 400 empty empty about 10 22 0 32 -258958 -262144
0;
#X text 50 161 DESCRIPTION;
#X text 50 251 INLETS (Left to Right);
#X obj 38 764 cnv 15 480 90 empty empty patch 10 22 0 32 -258958 -262144
0;
#X obj 48 710 outlet~;
#N canvas 1050 278 399 324 4osc~ 0;
#X obj 117 94 +~ 0.25;
#X obj 197 122 +~ 0.25;
#X obj 283 152 +~ 0.25;
#X obj 37 94 cos~;
#X obj 117 148 cos~;
#X obj 197 176 cos~;
#X obj 283 206 cos~;
#X obj 117 121 wrap~;
#X obj 197 149 wrap~;
#X obj 283 179 wrap~;
#X obj 37 65 phasor~;
#X obj 76 38 r \$0.phase;
#X obj 37 11 r~ \$0.freq;
#X obj 37 121 s~ \$0.out0;
#X obj 117 175 s~ \$0.out90;
#X obj 197 203 s~ \$0.out180;
#X obj 283 233 s~ \$0.out270;
#X connect 0 0 1 0;
#X connect 0 0 7 0;
#X connect 1 0 2 0;
#X connect 1 0 8 0;
#X connect 2 0 9 0;
#X connect 3 0 13 0;
#X connect 4 0 14 0;
#X connect 5 0 15 0;
#X connect 6 0 16 0;
#X connect 7 0 4 0;
#X connect 8 0 5 0;
#X connect 9 0 6 0;
#X connect 10 0 0 0;
#X connect 10 0 3 0;
#X connect 11 0 10 1;
#X connect 12 0 10 0;
#X restore 49 814 pd 4osc~;
#X obj 48 552 inlet~;
#X obj 48 579 s~ \$0.freq;
#X obj 128 579 s \$0.phase;
#X obj 128 552 inlet;
#X obj 48 683 r~ \$0.out0;
#X obj 122 710 outlet~;
#X obj 122 683 r~ \$0.out90;
#X obj 202 710 outlet~;
#X obj 202 683 r~ \$0.out180;
#X obj 288 710 outlet~;
#X obj 288 683 r~ \$0.out270;
#X text 50 181 [4osc~] is a quartet of cosinusoidal oscillators which
are placed out of phase with each other.;
#X text 50 271 1st -> (~) Frequency;
#X text 50 281 2nd -> (i) Set phase;
#X text 50 361 1st -> (~) Signal;
#X text 50 371 2nd -> (~) Signal 90 degrees out of phase;
#X text 50 381 3rd -> (~) Signal 180 degrees out of phase;
#X text 50 391 4th -> (~) Signal 270 degrees out of phase;
#X text 50 341 OUTLETS (Left to Right);
#X connect 9 0 10 0;
#X connect 12 0 11 0;
#X connect 13 0 7 0;
#X connect 15 0 14 0;
#X connect 17 0 16 0;
#X connect 19 0 18 0;
