#N canvas 0 45 1342 1033 10;
#X obj 38 502 cnv 15 480 120 empty empty inlets 10 22 0 32 -258958
-262144 0;
#X obj 38 633 cnv 15 480 120 empty empty outlets 10 22 0 32 -258958
-262144 0;
#X obj 38 32 cnv 15 480 48 empty empty acc 10 22 0 32 -99865 -262144
0;
#X obj 48 552 inlet;
#X obj 48 711 outlet;
#X obj 48 683 r \$0.out;
#X obj 38 91 cnv 15 480 400 empty empty about 10 22 0 32 -258958 -262144
0;
#X text 50 141 DESCRIPTION;
#X text 49 204 INLETS (Left to Right);
#X obj 38 764 cnv 15 480 90 empty empty patch 10 22 0 32 -258958 -262144
0;
#X obj 48 579 s \$0.hot;
#X obj 110 552 inlet;
#X obj 110 579 s \$0.cold;
#X text 49 354 OUTLETS;
#X text 49 224 1st -> (f) Add number to total and output current value
;
#X text 49 234 " " -> (b) Output current value;
#X text 49 244 2nd -> (f) Set current value;
#N canvas 1344 45 574 323 acc 0;
#X obj 50 129 +;
#X obj -2 92 t b f;
#X obj 55 92 t f f;
#X obj -2 38 r \$0.hot;
#X obj 75 27 r \$0.cold;
#X obj -2 183 s \$0.out;
#X obj -2 156 f;
#X obj 82 129 f;
#X obj 75 66 f \$1;
#X obj 142 26 loadbang;
#X connect 0 0 6 1;
#X connect 0 0 7 0;
#X connect 1 0 6 0;
#X connect 1 1 0 0;
#X connect 2 0 6 1;
#X connect 2 1 7 0;
#X connect 3 0 1 0;
#X connect 4 0 8 0;
#X connect 6 0 5 0;
#X connect 7 0 0 1;
#X connect 8 0 2 0;
#X connect 9 0 8 0;
#X restore 49 814 pd acc;
#X text 50 161 [acc] is a simple numerical accumulator;
#X text 48 291 ARGUMENTS;
#X text 49 374 1st -> (f) Number;
#X text 48 311 \$1 -> Initial value;
#X connect 3 0 10 0;
#X connect 5 0 4 0;
#X connect 11 0 12 0;
