#N canvas 1440 311 478 235 10;
#X obj 38 502 cnv 15 480 120 empty empty inlets 10 22 0 32 -258958
-262144 0;
#X obj 38 633 cnv 15 480 120 empty empty outlets 10 22 0 32 -258958
-262144 0;
#X obj 38 32 cnv 15 480 48 empty empty cppan~ 10 22 0 32 -99865 -262144
0;
#X obj 38 91 cnv 15 480 400 empty empty about 10 22 0 32 -258958 -262144
0;
#X text 50 151 DESCRIPTION;
#X text 50 271 INLETS (Left to Right);
#X obj 38 764 cnv 15 480 90 empty empty patch 10 22 0 32 -258958 -262144
0;
#X text 50 391 OUTLETS (Left to Right);
#X obj 116 552 inlet~;
#X obj 48 710 outlet~;
#N canvas 1440 45 478 235 cppan~ 1;
#X obj 43 38 cos~;
#X obj 131 38 cos~;
#X obj 43 65 +~;
#X obj 43 92 *~ 0.707;
#X obj 115 65 -~;
#X obj 115 92 *~ 0.707;
#X obj 28 146 *~;
#X obj 100 146 *~;
#X obj 44 -15 *~ 0.125;
#X obj 131 11 +~ 0.25;
#X obj 44 -42 r~ \$0.pan;
#X obj 28 119 r~ \$0.sig1;
#X obj 100 119 r~ \$0.sig2;
#X obj 28 173 s~ \$0.out1;
#X obj 100 173 s~ \$0.out2;
#X connect 0 0 2 0;
#X connect 0 0 4 0;
#X connect 1 0 2 1;
#X connect 1 0 4 1;
#X connect 2 0 3 0;
#X connect 3 0 6 1;
#X connect 4 0 5 0;
#X connect 5 0 7 1;
#X connect 6 0 13 0;
#X connect 7 0 14 0;
#X connect 8 0 0 0;
#X connect 8 0 9 0;
#X connect 9 0 1 0;
#X connect 10 0 8 0;
#X connect 11 0 6 0;
#X connect 12 0 7 0;
#X restore 49 814 pd cppan~;
#X obj 48 552 inlet~;
#X obj 116 579 s~ \$0.sig2;
#X obj 190 552 inlet~;
#X obj 190 579 s~ \$0.pan;
#X obj 48 683 r~ \$0.out1;
#X obj 122 710 outlet~;
#X obj 122 683 r~ \$0.out2;
#X text 50 291 1st -> (~) Signal 1;
#X text 50 301 2nd -> (~) Signal 2;
#X text 50 311 3rd -> (~) Pan (-1 to 1);
#X text 50 171 [cppan~] allows for fading between two signals using
a constant power panning curve. It can be used for crossfading \, panning
\, wet/dry mixing \, etc.;
#X text 50 411 1st -> (~) Scaled signal 1;
#X text 50 421 2nd -> (~) Scaled signal 2;
#X obj 48 579 s~ \$0.sig1;
#X connect 8 0 12 0;
#X connect 11 0 24 0;
#X connect 13 0 14 0;
#X connect 15 0 9 0;
#X connect 17 0 16 0;
