#N canvas 0 0 944 1101 10;
#X obj 38 502 cnv 15 480 120 empty empty inlets 10 22 0 32 -258958
-262144 0;
#X obj 38 633 cnv 15 480 120 empty empty outlets 10 22 0 32 -258958
-262144 0;
#X obj 38 32 cnv 15 480 48 empty empty ezpoly 10 22 0 32 -99865 -262144
0;
#X obj 38 91 cnv 15 480 400 empty empty about 10 22 0 32 -258958 -262144
0;
#X text 50 141 DESCRIPTION;
#X text 50 261 INLETS (Left to Right);
#X obj 38 764 cnv 15 480 90 empty empty patch 10 22 0 32 -258958 -262144
0;
#X text 50 341 ARGUMENTS;
#X obj 48 552 inlet;
#N canvas 1043 219 399 324 ezpoly 0;
#X obj 60 176 list prepend;
#X obj 129 122 i;
#X obj 161 122 + 1;
#X obj 102 94 t a b;
#X obj 129 149 mod \$1;
#X obj 102 67 r \$0.data;
#X obj 193 122 r \$0.voices;
#X obj 60 203 s \$0.out;
#X connect 0 0 7 0;
#X connect 1 0 2 0;
#X connect 1 0 4 0;
#X connect 2 0 1 1;
#X connect 3 0 0 0;
#X connect 3 1 1 0;
#X connect 4 0 0 1;
#X connect 5 0 3 0;
#X connect 6 0 4 1;
#X restore 49 814 pd ezpoly;
#X obj 48 579 s \$0.data;
#X obj 116 552 inlet;
#X obj 116 579 s \$0.voices;
#X obj 48 683 r \$0.out;
#X obj 48 710 outlet;
#X text 50 291 2nd -> (i) Number of voices;
#X text 50 361 \$1 -> (f) Number of voices;
#X text 50 431 1st -> (f) Data with voice number;
#X text 50 281 1st -> (l) Data;
#X text 50 411 OUTLETS (Left to Right);
#X text 50 161 [ezpoly] is a dumbed down version of PD's [poly] object
for non-standard (non-MIDI) note data. [ezpoly] is for when you don't
have noteup events or need to worry about voice stealing and stuff
like that. You still need to send [ezpoly]'s output to a [route] object
to get any use out of it.;
#X connect 8 0 10 0;
#X connect 11 0 12 0;
#X connect 13 0 14 0;
