#N canvas 0 50 944 981 10;
#X obj 38 502 cnv 15 480 120 empty empty inlets 10 22 0 32 -258958
-262144 0;
#X obj 38 633 cnv 15 480 120 empty empty outlets 10 22 0 32 -258958
-262144 0;
#X obj 38 32 cnv 15 480 48 empty empty rampEnv~ 10 22 0 32 -99865 -262144
0;
#X obj 38 91 cnv 15 480 400 empty empty about 10 22 0 32 -258958 -262144
0;
#X text 50 141 DESCRIPTION;
#X text 50 361 INLETS (Left to Right);
#X obj 38 764 cnv 15 480 90 empty empty patch 10 22 0 32 -258958 -262144
0;
#X obj 48 710 outlet~;
#X text 50 431 OUTLETS (Left to Right);
#X obj 48 552 inlet;
#X obj 48 683 r~ \$0.env;
#X text 50 381 1st -> (f) Duration in ms;
#X text 50 451 1st -> (~) Envelope;
#X obj 140 552 inlet;
#X obj 48 579 s \$0.duration;
#X obj 140 579 s \$0.ratio;
#N canvas 955 181 362 357 rampEnv~ 0;
#X obj 118 261 vline~;
#X msg 118 234 0 \, 1 \$1 \, 0 \$2 \$1;
#X obj 118 98 t f f;
#X obj 118 207 pack;
#X obj 181 98 t f f;
#X msg 208 125 1 \$1;
#X obj 208 152 -;
#X obj 118 71 unpack f \$1;
#X obj 193 180 *;
#X obj 118 180 *;
#X obj 118 44 r \$0.duration;
#X obj 198 71 r \$0.ratio;
#X obj 118 288 s~ \$0.env;
#X connect 0 0 12 0;
#X connect 1 0 0 0;
#X connect 2 0 9 0;
#X connect 2 1 8 0;
#X connect 3 0 1 0;
#X connect 4 0 9 1;
#X connect 4 1 5 0;
#X connect 5 0 6 0;
#X connect 6 0 8 1;
#X connect 7 0 2 0;
#X connect 7 1 4 0;
#X connect 8 0 3 1;
#X connect 9 0 3 0;
#X connect 10 0 7 0;
#X connect 11 0 4 0;
#X restore 49 814 pd rampEnv~;
#X text 50 391 2nd -> (f) Ratio;
#X text 50 221 RATIO STUFF;
#X text 50 311 n > 0.5 -> Ramp down;
#X text 50 321 n < 0.5 -> Ramp up;
#X text 50 331 n = 0.5 -> Triangle;
#X text 50 161 [rampEnv~] takes a duration and ratio and outputs a
ramp envelope. This can be used as a basic envelope \, for windowing
\, etc.;
#X text 49 241 This object essentially generates an attack and release
stage over the course of the given duration. The ratio controls the
relationship between the attack and release stages Given a ratio n:
;
#X connect 9 0 14 0;
#X connect 10 0 7 0;
#X connect 13 0 15 0;
