#N canvas 0 50 944 981 10;
#X obj 38 502 cnv 15 480 120 empty empty inlets 10 22 0 32 -258958
-262144 0;
#X obj 38 633 cnv 15 480 120 empty empty outlets 10 22 0 32 -258958
-262144 0;
#X obj 38 32 cnv 15 480 48 empty empty rnd 10 22 0 32 -99865 -262144
0;
#X obj 48 552 inlet;
#X obj 48 711 outlet;
#X obj 48 683 r \$0.out;
#X obj 38 91 cnv 15 480 400 empty empty about 10 22 0 32 -258958 -262144
0;
#X text 50 141 DESCRIPTION;
#X text 49 204 INLETS (Left to Right);
#X obj 38 764 cnv 15 480 90 empty empty patch 10 22 0 32 -258958 -262144
0;
#N canvas 1091 152 370 414 rnd 0;
#X obj 22 85 random 1e+009;
#X obj 22 112 / 1e+009;
#X obj 22 58 r \$0.trigger;
#X obj 22 139 s \$0.out;
#X connect 0 0 1 0;
#X connect 1 0 3 0;
#X connect 2 0 0 0;
#X restore 49 814 pd rnd;
#X obj 48 579 s \$0.trigger;
#X text 49 264 OUTLETS;
#X text 50 161 [rnd] Generates a random number between 0 and 1;
#X text 49 284 \$1 -> (f) Random number;
#X text 49 224 1st -> (b) Trigger this thing;
#X connect 3 0 11 0;
#X connect 5 0 4 0;
