#N canvas 0 0 944 981 10;
#X obj 38 502 cnv 15 480 120 empty empty inlets 10 22 0 32 -258958
-262144 0;
#X obj 38 633 cnv 15 480 120 empty empty outlets 10 22 0 32 -258958
-262144 0;
#X obj 38 32 cnv 15 480 48 empty empty sawOsc~ 10 22 0 32 -99865 -262144
0;
#X obj 38 91 cnv 15 480 400 empty empty about 10 22 0 32 -258958 -262144
0;
#X text 50 141 DESCRIPTION;
#X text 50 311 INLETS (Left to Right);
#X obj 38 764 cnv 15 480 90 empty empty patch 10 22 0 32 -258958 -262144
0;
#X text 50 391 OUTLETS (Left to Right);
#X obj 48 552 inlet~;
#X obj 122 552 inlet~;
#X obj 202 552 inlet;
#X obj 202 579 s \$0.phase;
#X obj 122 579 s~ \$0.width;
#X obj 48 579 s~ \$0.freq;
#N canvas 0 50 404 352 sawOsc~ 0;
#X obj 72 21 r~ \$0.freq;
#X obj 112 48 r \$0.phase;
#X obj 73 291 s~ \$0.out;
#X obj 73 237 *~ 2;
#X obj 73 264 -~ 1;
#X obj 73 129 min~ 1;
#X obj 73 156 wrap~;
#X obj 73 183 +~ 0.5;
#X obj 73 210 wrap~;
#X obj 73 75 phasor~;
#X obj 73 102 *~;
#X obj 185 30 r~ \$0.width;
#X obj 186 59 +~ 1;
#X obj 186 86 max~ 1;
#X connect 0 0 9 0;
#X connect 1 0 9 1;
#X connect 3 0 4 0;
#X connect 4 0 2 0;
#X connect 5 0 6 0;
#X connect 6 0 7 0;
#X connect 7 0 8 0;
#X connect 8 0 3 0;
#X connect 9 0 10 0;
#X connect 10 0 5 0;
#X connect 11 0 12 0;
#X connect 12 0 13 0;
#X connect 13 0 10 1;
#X restore 49 814 pd sawOsc~;
#X text 50 351 3rd -> (f) Set phase of oscillator;
#X text 50 341 2nd -> (~) "Width" of duty cycle;
#X text 50 331 1st -> (~) Frequency;
#X text 50 411 1st -> (~) Saw oscillator tone;
#X text 50 211 DUTY CYCLE INFO;
#X text 50 161 [sawOsc~] is a band-unlimited sawtooth oscillator with
a variable duty cycle for added fun.;
#X text 50 231 The duty cycle control is implemented in a non-standard
manner. It is inversely proportional to a "width" variable. A larger
"width" results in a shorter duty cycle with 0 "width" a 100% duty
cycle.;
#X obj 48 683 r~ \$0.out;
#X obj 48 710 outlet~;
#X connect 8 0 13 0;
#X connect 9 0 12 0;
#X connect 10 0 11 0;
#X connect 22 0 23 0;
