#N canvas 0 50 944 981 10;
#X obj 38 502 cnv 15 480 120 empty empty inlets 10 22 0 32 -258958
-262144 0;
#X obj 38 633 cnv 15 480 120 empty empty outlets 10 22 0 32 -258958
-262144 0;
#X obj 38 32 cnv 15 480 48 empty empty sinEnv~ 10 22 0 32 -99865 -262144
0;
#X obj 38 91 cnv 15 480 400 empty empty about 10 22 0 32 -258958 -262144
0;
#X text 50 161 DESCRIPTION;
#X text 50 271 INLETS (Left to Right);
#X obj 38 764 cnv 15 480 90 empty empty patch 10 22 0 32 -258958 -262144
0;
#X obj 48 710 outlet~;
#X text 50 381 OUTLETS (Left to Right);
#X obj 48 552 inlet;
#X obj 48 683 r~ \$0.env;
#N canvas 423 140 258 201 sinEnv~ 0;
#X obj 97 95 vline~;
#X obj 97 122 cos~;
#X obj 47 111 sig~ 1;
#X obj 47 138 -~;
#X obj 47 165 *~ 0.5;
#X msg 97 68 0 \, 1 \$1;
#X obj 47 192 s~ \$0.env;
#X obj 97 41 r \$0.duration;
#X connect 0 0 1 0;
#X connect 1 0 3 1;
#X connect 2 0 3 0;
#X connect 3 0 4 0;
#X connect 4 0 6 0;
#X connect 5 0 0 0;
#X connect 7 0 5 0;
#X restore 49 814 pd sinEnv~;
#X text 50 181 [sinEnv~] takes a millisecond duration and outputs the
first half (0 to PI) of a sinusoid with an amplitude of 1 This can
be used as a basic envelope \, for windowing \, etc.;
#X text 50 291 1st -> (f) Duration in ms;
#X text 50 401 1st -> (~) Envelope;
#X obj 48 579 s \$0.duration;
#X connect 9 0 15 0;
#X connect 10 0 7 0;
