#N canvas 0 0 944 981 10;
#X obj 38 502 cnv 15 480 120 empty empty inlets 10 22 0 32 -258958
-262144 0;
#X obj 38 633 cnv 15 480 120 empty empty outlets 10 22 0 32 -258958
-262144 0;
#X obj 38 32 cnv 15 480 48 empty empty sinOsc~ 10 22 0 32 -99865 -262144
0;
#X obj 38 91 cnv 15 480 400 empty empty about 10 22 0 32 -258958 -262144
0;
#X text 50 141 DESCRIPTION;
#X text 50 341 INLETS (Left to Right);
#X obj 38 764 cnv 15 480 90 empty empty patch 10 22 0 32 -258958 -262144
0;
#X text 50 421 OUTLETS (Left to Right);
#X obj 48 552 inlet~;
#X obj 122 552 inlet~;
#X obj 202 552 inlet;
#X obj 202 579 s \$0.phase;
#X obj 122 579 s~ \$0.width;
#X obj 48 579 s~ \$0.freq;
#X text 50 381 3rd -> (f) Set phase of oscillator;
#X text 50 371 2nd -> (~) "Width" of duty cycle;
#X text 50 361 1st -> (~) Frequency;
#X text 50 241 DUTY CYCLE INFO;
#N canvas 0 50 404 521 sinOsc~ 0;
#X obj 91 127 r~ \$0.freq;
#X obj 203 136 r~ \$0.width;
#X obj 130 154 r \$0.phase;
#X obj 91 370 s~ \$0.out;
#X obj 91 235 min~ 1;
#X obj 91 262 wrap~;
#X obj 91 316 wrap~;
#X obj 91 343 cos~;
#X obj 91 289 -~ 0.25;
#X obj 91 181 phasor~;
#X obj 91 208 *~;
#X obj 204 165 +~ 1;
#X obj 204 192 max~ 1;
#X connect 0 0 9 0;
#X connect 1 0 11 0;
#X connect 2 0 9 1;
#X connect 4 0 5 0;
#X connect 5 0 8 0;
#X connect 6 0 7 0;
#X connect 7 0 3 0;
#X connect 8 0 6 0;
#X connect 9 0 10 0;
#X connect 10 0 4 0;
#X connect 11 0 12 0;
#X connect 12 0 10 1;
#X restore 49 814 pd sinOsc~;
#X text 50 441 1st -> (~) Sine oscillator tone;
#X text 50 161 [sinOsc~] is a band-unlimited sinusoidal oscillator
with a variable duty cycle control for added fun (that's why we are
concerned with the bandwidth of a sinusoidal oscillator).;
#X text 50 261 The duty cycle control is implemented in a non-standard
manner. It is inversely proportional to a "width" variable. A larger
"width" results in a shorter duty cycle with 0 "width" being a 100%
duty cycle.;
#X obj 48 683 r~ \$0.out;
#X obj 48 710 outlet~;
#X connect 8 0 13 0;
#X connect 9 0 12 0;
#X connect 10 0 11 0;
#X connect 22 0 23 0;
