#N canvas 0 50 944 981 10;
#X obj 38 502 cnv 15 480 120 empty empty inlets 10 22 0 32 -258958
-262144 0;
#X obj 38 633 cnv 15 480 120 empty empty outlets 10 22 0 32 -258958
-262144 0;
#X obj 38 32 cnv 15 480 48 empty empty sinTab 10 22 0 32 -99865 -262144
0;
#X obj 38 91 cnv 15 480 400 empty empty about 10 22 0 32 -258958 -262144
0;
#X text 50 141 DESCRIPTION;
#X obj 38 764 cnv 15 480 90 empty empty patch 10 22 0 32 -258958 -262144
0;
#X text 50 271 ARGUMENTS;
#X text 50 291 \$1 -> (s) Table name;
#X text 50 301 \$2 -> (i) Table size (will be rounded to nearest 2^n)
;
#N canvas 423 140 399 481 sinTab 0;
#X obj 37 37 table \$1;
#X obj 32 94 loadbang;
#X obj 32 175 s \$1;
#X obj 32 121 i \$2;
#X msg 32 148 sinesum \$1 1;
#X connect 1 0 3 0;
#X connect 3 0 4 0;
#X connect 4 0 2 0;
#X restore 49 814 pd sinTab;
#X text 50 161 [sinTab] generates a sinusoidal wavetable. A sine wavetable
is not very useful but is included for the sake of completion. This
wavetable can be used with PD's [tabosc4~] object.;
