#N canvas 0 0 944 981 10;
#X obj 38 502 cnv 15 480 120 empty empty inlets 10 22 0 32 -258958
-262144 0;
#X obj 38 633 cnv 15 480 120 empty empty outlets 10 22 0 32 -258958
-262144 0;
#X obj 38 32 cnv 15 480 48 empty empty triOsc~ 10 22 0 32 -99865 -262144
0;
#X obj 38 91 cnv 15 480 400 empty empty about 10 22 0 32 -258958 -262144
0;
#X text 50 141 DESCRIPTION;
#X text 50 311 INLETS (Left to Right);
#X obj 38 764 cnv 15 480 90 empty empty patch 10 22 0 32 -258958 -262144
0;
#X text 50 391 OUTLETS (Left to Right);
#X obj 48 552 inlet~;
#X obj 122 552 inlet~;
#X obj 202 552 inlet;
#X obj 202 579 s \$0.phase;
#X obj 122 579 s~ \$0.width;
#X obj 48 579 s~ \$0.freq;
#X text 50 351 3rd -> (f) Set phase of oscillator;
#X text 50 341 2nd -> (~) "Width" of duty cycle;
#X text 50 331 1st -> (~) Frequency;
#X text 50 211 DUTY CYCLE INFO;
#N canvas 0 50 404 521 triOsc~ 0;
#X obj 80 27 r~ \$0.freq;
#X obj 119 54 r \$0.phase;
#X obj 80 378 s~ \$0.out;
#X obj 80 135 min~ 1;
#X obj 80 162 wrap~;
#X obj 80 216 wrap~;
#X obj 80 243 *~ 2;
#X obj 80 270 -~ 1;
#X obj 80 297 abs~;
#X obj 80 324 *~ 2;
#X obj 80 351 -~ 1;
#X obj 80 189 -~ 0.25;
#X obj 80 81 phasor~;
#X obj 80 108 *~;
#X obj 192 36 r~ \$0.width;
#X obj 193 65 +~ 1;
#X obj 193 92 max~ 1;
#X connect 0 0 12 0;
#X connect 1 0 12 1;
#X connect 3 0 4 0;
#X connect 4 0 11 0;
#X connect 5 0 6 0;
#X connect 6 0 7 0;
#X connect 7 0 8 0;
#X connect 8 0 9 0;
#X connect 9 0 10 0;
#X connect 10 0 2 0;
#X connect 11 0 5 0;
#X connect 12 0 13 0;
#X connect 13 0 3 0;
#X connect 14 0 15 0;
#X connect 15 0 16 0;
#X connect 16 0 13 1;
#X restore 49 814 pd triOsc~;
#X text 50 411 1st -> (~) Triangle oscillator tone;
#X text 50 161 [triOsc~] is a band-unlimited triangle oscillator with
a variable duty cycle control for added fun.;
#X text 50 231 The duty cycle control is implemented in a non-standard
manner. It is inversely proportional to a "width" variable. A larger
"width" results in a shorter duty cycle with 0 "width" being a 100%
duty cycle.;
#X obj 48 683 r~ \$0.out;
#X obj 48 710 outlet~;
#X connect 8 0 13 0;
#X connect 9 0 12 0;
#X connect 10 0 11 0;
#X connect 22 0 23 0;
