#N canvas 1440 45 478 363 10;
#X obj 38 502 cnv 15 480 120 empty empty inlets 10 22 0 32 -258958
-262144 0;
#X obj 38 633 cnv 15 480 120 empty empty outlets 10 22 0 32 -258958
-262144 0;
#X obj 38 32 cnv 15 480 48 empty empty vol~ 10 22 0 32 -99865 -262144
0;
#X obj 38 91 cnv 15 480 400 empty empty about 10 22 0 32 -258958 -262144
0;
#X text 50 141 DESCRIPTION;
#X text 50 231 INLETS (Left to Right);
#X obj 38 763 cnv 15 480 130 empty empty patch 10 22 0 32 -258958 -262144
0;
#X obj 48 710 outlet~;
#X text 50 331 OUTLETS (Left to Right);
#X obj 48 552 inlet~;
#X obj 122 552 inlet~;
#X obj 48 579 s~ \$0.in.0;
#X obj 122 579 s~ \$0.in.1;
#X text 50 161 Stereo volume control. UI stuff.;
#X text 50 251 1st -> (~) Channel 1;
#X text 50 261 2nd -> (~) Channel 2;
#X text 50 351 1st -> (~) Channel 1;
#X text 50 361 2nd -> (~) Channel 2;
#X obj 138 710 outlet~;
#X obj 48 683 r~ \$0.out.0;
#X obj 138 683 r~ \$0.out.1;
#N canvas 1440 45 478 265 vol~ 0;
#X obj 104 105 vsl 15 64 0 1 0 0 empty empty empty 0 -9 0 10 -262144
-1 -1 0 1;
#X obj 45 392 *~;
#X obj 125 404 *~;
#X obj 125 265 t f f;
#X obj 125 292 *;
#X obj 125 320 lop~ 32;
#X obj 46 327 r~ \$0.in.0;
#X obj 162 348 r~ \$0.in.1;
#X obj 38 439 s~ \$0.out.0;
#X obj 126 438 s~ \$0.out.1;
#X connect 0 0 3 0;
#X connect 1 0 8 0;
#X connect 2 0 9 0;
#X connect 3 0 4 0;
#X connect 3 1 4 1;
#X connect 4 0 5 0;
#X connect 5 0 2 1;
#X connect 5 0 1 1;
#X connect 6 0 1 0;
#X connect 7 0 2 0;
#X coords 0 -1 1 1 25 74 2 100 100;
#X restore 60 810 pd vol~;
#X connect 9 0 11 0;
#X connect 10 0 12 0;
#X connect 19 0 7 0;
#X connect 20 0 18 0;
#X coords 0 -1 1 1 25 74 2 60 810;
